<svg width="552" height="461" viewBox="0 0 552 461" fill="none" xmlns="http://www.w3.org/2000/svg">
<g filter="url(#filter0_d_74_1688)">
<path d="M154.662 199L143.042 140.485H155.492L162.63 180.574L183.214 140.485H192.593L199.897 180.906L220.149 140.485H233.346L203.134 199H192.676L185.123 160.239L165.12 199H154.662ZM231.447 199L240.743 140.485H250.952L264.813 176.673L290.294 140.485H301.333L292.037 199H280.417L286.061 163.144L266.888 190.202H259.75L248.711 163.393L243.067 199H231.447ZM326.397 199.913C322.081 199.913 317.875 199.36 313.781 198.253C309.686 197.091 306.089 195.32 302.991 192.941L307.39 183.147C310.654 185.36 314.002 186.937 317.433 187.878C320.919 188.763 324.294 189.206 327.559 189.206C331.1 189.206 333.839 188.57 335.776 187.297C337.768 186.024 338.764 184.392 338.764 182.4C338.764 180.795 338.183 179.467 337.021 178.416C335.859 177.365 333.922 176.535 331.211 175.926L321.832 173.685C317.737 172.744 314.472 171.001 312.038 168.456C309.658 165.911 308.469 162.618 308.469 158.579C308.469 154.595 309.575 151.192 311.789 148.37C314.002 145.493 316.935 143.307 320.587 141.813C324.239 140.319 328.195 139.572 332.456 139.572C336.108 139.572 339.787 140.125 343.495 141.232C347.257 142.339 350.633 144.054 353.621 146.378L349.056 155.674C346.51 153.737 343.744 152.354 340.756 151.524C337.823 150.694 335.001 150.279 332.29 150.279C328.914 150.279 326.203 150.943 324.156 152.271C322.164 153.544 321.168 155.259 321.168 157.417C321.168 159.077 321.693 160.405 322.745 161.401C323.851 162.342 325.484 163.089 327.642 163.642L336.938 165.883C341.641 166.934 345.238 168.788 347.728 171.444C350.218 174.045 351.463 177.171 351.463 180.823C351.463 185.084 350.301 188.625 347.977 191.447C345.653 194.269 342.582 196.399 338.764 197.838C334.946 199.221 330.823 199.913 326.397 199.913ZM383.221 199.913C378.185 199.913 373.814 198.945 370.107 197.008C366.399 195.016 363.688 192.056 361.973 188.127C360.257 184.143 359.87 179.108 360.811 173.021L365.957 140.485H378.905L373.593 173.851C372.873 178.72 373.371 182.455 375.087 185.056C376.857 187.657 379.901 188.957 384.217 188.957C388.145 188.957 391.272 187.906 393.596 185.803C395.975 183.7 397.552 180.38 398.327 175.843L403.888 140.485H416.67L411.109 175.428C409.836 183.341 407.014 189.4 402.643 193.605C398.271 197.81 391.797 199.913 383.221 199.913Z" fill="white"/>
</g>
<g filter="url(#filter1_d_74_1688)">
<path d="M169.492 255.484C166.002 255.484 163.039 254.824 160.604 253.504C158.199 252.184 156.366 250.336 155.104 247.96C153.843 245.584 153.212 242.797 153.212 239.6C153.212 236.315 153.858 233.469 155.148 231.064C156.468 228.659 158.36 226.796 160.824 225.476C163.288 224.156 166.251 223.496 169.712 223.496C171.883 223.496 173.936 223.804 175.872 224.42C177.838 225.036 179.436 225.857 180.668 226.884L178.468 232.208C177.119 231.211 175.74 230.507 174.332 230.096C172.924 229.656 171.399 229.436 169.756 229.436C166.618 229.436 164.256 230.316 162.672 232.076C161.118 233.807 160.34 236.315 160.34 239.6C160.34 242.915 161.132 245.423 162.716 247.124C164.33 248.825 166.706 249.676 169.844 249.676C171.516 249.676 173.276 249.412 175.124 248.884V242.812H168.436V237.884H180.756V253.108C179.231 253.871 177.471 254.457 175.476 254.868C173.482 255.279 171.487 255.484 169.492 255.484ZM183.229 255L197.485 223.98H202.985L217.241 255H210.377L207.473 248.268H192.997L190.137 255H183.229ZM200.169 231.24L195.285 242.944H205.229L200.257 231.24H200.169ZM219.922 255V223.98H234.09C237.551 223.98 240.22 224.816 242.098 226.488C243.975 228.16 244.914 230.492 244.914 233.484C244.914 235.801 244.312 237.737 243.11 239.292C241.936 240.817 240.25 241.859 238.05 242.416C239.604 242.885 240.88 244.015 241.878 245.804L246.894 255H239.37L234.002 245.1C233.562 244.308 233.019 243.765 232.374 243.472C231.728 243.149 230.966 242.988 230.086 242.988H226.742V255H219.922ZM226.742 238.06H232.858C236.524 238.06 238.358 236.593 238.358 233.66C238.358 230.756 236.524 229.304 232.858 229.304H226.742V238.06ZM250.646 255V223.98H256.322L266.794 243.032L277.222 223.98H282.81V255H276.606V236.08L268.598 250.336H264.77L256.806 236.212V255H250.646ZM289.101 255V223.98H310.353V229.304H295.613V236.564H309.385V241.932H295.613V249.676H310.353V255H289.101ZM315.742 255V223.98H320.802L336.29 243.736V223.98H342.626V255H337.61L322.078 235.2V255H315.742ZM356.263 255V229.612H346.011V223.98H373.335V229.612H363.083V255H356.263ZM386.771 255.484C384.337 255.484 382.034 255.176 379.863 254.56C377.722 253.944 375.933 253.108 374.495 252.052L376.475 246.684C377.854 247.652 379.423 248.415 381.183 248.972C382.973 249.529 384.835 249.808 386.771 249.808C388.883 249.808 390.394 249.485 391.303 248.84C392.242 248.165 392.711 247.329 392.711 246.332C392.711 245.481 392.389 244.807 391.743 244.308C391.098 243.809 389.969 243.384 388.355 243.032L383.383 241.976C377.839 240.803 375.067 237.928 375.067 233.352C375.067 231.387 375.595 229.671 376.651 228.204C377.707 226.708 379.174 225.549 381.051 224.728C382.958 223.907 385.158 223.496 387.651 223.496C389.793 223.496 391.802 223.804 393.679 224.42C395.557 225.036 397.111 225.901 398.343 227.016L396.363 232.032C393.958 230.125 391.039 229.172 387.607 229.172C385.759 229.172 384.322 229.539 383.295 230.272C382.298 230.976 381.799 231.9 381.799 233.044C381.799 233.895 382.107 234.584 382.723 235.112C383.339 235.64 384.41 236.065 385.935 236.388L390.907 237.444C396.598 238.676 399.443 241.463 399.443 245.804C399.443 247.74 398.915 249.441 397.859 250.908C396.833 252.345 395.366 253.475 393.459 254.296C391.582 255.088 389.353 255.484 386.771 255.484Z" fill="white"/>
</g>
<g filter="url(#filter2_d_74_1688)">
<path d="M177.21 304.55C174.61 304.55 172.077 304.217 169.61 303.55C167.143 302.85 164.977 301.783 163.11 300.35L165.76 294.45C167.727 295.783 169.743 296.733 171.81 297.3C173.91 297.833 175.943 298.1 177.91 298.1C180.043 298.1 181.693 297.717 182.86 296.95C184.06 296.183 184.66 295.2 184.66 294C184.66 293.033 184.31 292.233 183.61 291.6C182.91 290.967 181.743 290.467 180.11 290.1L174.46 288.75C171.993 288.183 170.027 287.133 168.56 285.6C167.127 284.067 166.41 282.083 166.41 279.65C166.41 277.25 167.077 275.2 168.41 273.5C169.743 271.767 171.51 270.45 173.71 269.55C175.91 268.65 178.293 268.2 180.86 268.2C183.06 268.2 185.277 268.533 187.51 269.2C189.777 269.867 191.81 270.9 193.61 272.3L190.86 277.9C189.327 276.733 187.66 275.9 185.86 275.4C184.093 274.9 182.393 274.65 180.76 274.65C178.727 274.65 177.093 275.05 175.86 275.85C174.66 276.617 174.06 277.65 174.06 278.95C174.06 279.95 174.377 280.75 175.01 281.35C175.677 281.917 176.66 282.367 177.96 282.7L183.56 284.05C186.393 284.683 188.56 285.8 190.06 287.4C191.56 288.967 192.31 290.85 192.31 293.05C192.31 295.617 191.61 297.75 190.21 299.45C188.81 301.15 186.96 302.433 184.66 303.3C182.36 304.133 179.877 304.55 177.21 304.55ZM223.573 304L229.173 268.75H236.923L234.673 282.9H251.023L253.323 268.75H261.073L255.473 304H247.723L250.023 289.35H233.623L231.323 304H223.573ZM308.219 304.55C304.986 304.55 302.152 303.933 299.719 302.7C297.319 301.467 295.452 299.683 294.119 297.35C292.786 295.017 292.119 292.2 292.119 288.9C292.119 284.867 292.886 281.3 294.419 278.2C295.986 275.067 298.169 272.617 300.969 270.85C303.769 269.083 307.086 268.2 310.919 268.2C314.186 268.2 317.019 268.817 319.419 270.05C321.852 271.283 323.719 273.067 325.019 275.4C326.352 277.733 327.019 280.533 327.019 283.8C327.019 287.867 326.252 291.467 324.719 294.6C323.186 297.7 321.002 300.133 318.169 301.9C315.369 303.667 312.052 304.55 308.219 304.55ZM308.369 297.95C310.602 297.95 312.502 297.35 314.069 296.15C315.669 294.95 316.886 293.3 317.719 291.2C318.552 289.1 318.969 286.683 318.969 283.95C318.969 280.85 318.236 278.55 316.769 277.05C315.302 275.55 313.302 274.8 310.769 274.8C308.536 274.8 306.636 275.4 305.069 276.6C303.502 277.767 302.302 279.4 301.469 281.5C300.636 283.6 300.219 286.033 300.219 288.8C300.219 291.9 300.936 294.2 302.369 295.7C303.836 297.2 305.836 297.95 308.369 297.95ZM358.046 304L363.646 268.75H377.896C381.996 268.75 385.079 269.633 387.146 271.4C389.213 273.133 390.246 275.583 390.246 278.75C390.246 282.75 389.029 285.85 386.596 288.05C384.163 290.217 380.629 291.3 375.996 291.3H367.796L365.796 304H358.046ZM368.796 285.3H376.296C380.629 285.3 382.796 283.333 382.796 279.4C382.796 276.333 380.846 274.8 376.946 274.8H370.446L368.796 285.3Z" fill="white"/>
</g>
<g filter="url(#filter3_d_74_1688)">
<path d="M170.506 335L180.226 313.85H183.976L193.696 335H189.016L187.036 330.41H177.166L175.216 335H170.506ZM182.056 318.8L178.726 326.78H185.506L182.116 318.8H182.056ZM195.524 335V313.85H203.804C207.404 313.85 210.194 314.77 212.174 316.61C214.154 318.43 215.144 321.03 215.144 324.41C215.144 327.79 214.154 330.4 212.174 332.24C210.194 334.08 207.404 335 203.804 335H195.524ZM200.174 331.19H203.534C208.034 331.19 210.284 328.93 210.284 324.41C210.284 319.91 208.034 317.66 203.534 317.66H200.174V331.19ZM218.817 335V313.85H222.687L229.827 326.84L236.937 313.85H240.747V335H236.517V322.1L231.057 331.82H228.447L223.017 322.19V335H218.817ZM245.036 335V313.85H249.686V335H245.036ZM253.913 335V313.85H257.363L267.923 327.32V313.85H272.243V335H268.823L258.233 321.5V335H253.913ZM284.85 335V313.85H294.51C296.87 313.85 298.69 314.45 299.97 315.65C301.25 316.83 301.89 318.48 301.89 320.6C301.89 322.72 301.25 324.38 299.97 325.58C298.69 326.78 296.87 327.38 294.51 327.38H289.5V335H284.85ZM289.5 323.78H293.73C296.19 323.78 297.42 322.72 297.42 320.6C297.42 318.52 296.19 317.48 293.73 317.48H289.5V323.78ZM300.116 335L309.836 313.85H313.586L323.306 335H318.626L316.646 330.41H306.776L304.826 335H300.116ZM311.666 318.8L308.336 326.78H315.116L311.726 318.8H311.666ZM325.134 335V313.85H328.584L339.144 327.32V313.85H343.464V335H340.044L329.454 321.5V335H325.134ZM347.722 335V313.85H362.212V317.48H352.162V322.43H361.552V326.09H352.162V331.37H362.212V335H347.722ZM365.886 335V313.85H370.536V331.07H380.316V335H365.886Z" fill="white"/>
</g>
<defs>
<filter id="filter0_d_74_1688" x="139.042" y="139.572" width="281.627" height="70.341" filterUnits="userSpaceOnUse" color-interpolation-filters="sRGB">
<feFlood flood-opacity="0" result="BackgroundImageFix"/>
<feColorMatrix in="SourceAlpha" type="matrix" values="0 0 0 0 0 0 0 0 0 0 0 0 0 0 0 0 0 0 127 0" result="hardAlpha"/>
<feOffset dy="6"/>
<feGaussianBlur stdDeviation="2"/>
<feComposite in2="hardAlpha" operator="out"/>
<feColorMatrix type="matrix" values="0 0 0 0 0 0 0 0 0 0 0 0 0 0 0 0 0 0 0.5 0"/>
<feBlend mode="normal" in2="BackgroundImageFix" result="effect1_dropShadow_74_1688"/>
<feBlend mode="normal" in="SourceGraphic" in2="effect1_dropShadow_74_1688" result="shape"/>
</filter>
<filter id="filter1_d_74_1688" x="149.212" y="223.496" width="254.231" height="41.988" filterUnits="userSpaceOnUse" color-interpolation-filters="sRGB">
<feFlood flood-opacity="0" result="BackgroundImageFix"/>
<feColorMatrix in="SourceAlpha" type="matrix" values="0 0 0 0 0 0 0 0 0 0 0 0 0 0 0 0 0 0 127 0" result="hardAlpha"/>
<feOffset dy="6"/>
<feGaussianBlur stdDeviation="2"/>
<feComposite in2="hardAlpha" operator="out"/>
<feColorMatrix type="matrix" values="0 0 0 0 0 0 0 0 0 0 0 0 0 0 0 0 0 0 0.5 0"/>
<feBlend mode="normal" in2="BackgroundImageFix" result="effect1_dropShadow_74_1688"/>
<feBlend mode="normal" in="SourceGraphic" in2="effect1_dropShadow_74_1688" result="shape"/>
</filter>
<filter id="filter2_d_74_1688" x="159.11" y="268.2" width="235.136" height="46.35" filterUnits="userSpaceOnUse" color-interpolation-filters="sRGB">
<feFlood flood-opacity="0" result="BackgroundImageFix"/>
<feColorMatrix in="SourceAlpha" type="matrix" values="0 0 0 0 0 0 0 0 0 0 0 0 0 0 0 0 0 0 127 0" result="hardAlpha"/>
<feOffset dy="6"/>
<feGaussianBlur stdDeviation="2"/>
<feComposite in2="hardAlpha" operator="out"/>
<feColorMatrix type="matrix" values="0 0 0 0 0 0 0 0 0 0 0 0 0 0 0 0 0 0 0.5 0"/>
<feBlend mode="normal" in2="BackgroundImageFix" result="effect1_dropShadow_74_1688"/>
<feBlend mode="normal" in="SourceGraphic" in2="effect1_dropShadow_74_1688" result="shape"/>
</filter>
<filter id="filter3_d_74_1688" x="166.506" y="313.85" width="217.809" height="31.15" filterUnits="userSpaceOnUse" color-interpolation-filters="sRGB">
<feFlood flood-opacity="0" result="BackgroundImageFix"/>
<feColorMatrix in="SourceAlpha" type="matrix" values="0 0 0 0 0 0 0 0 0 0 0 0 0 0 0 0 0 0 127 0" result="hardAlpha"/>
<feOffset dy="6"/>
<feGaussianBlur stdDeviation="2"/>
<feComposite in2="hardAlpha" operator="out"/>
<feColorMatrix type="matrix" values="0 0 0 0 0 0 0 0 0 0 0 0 0 0 0 0 0 0 0.5 0"/>
<feBlend mode="normal" in2="BackgroundImageFix" result="effect1_dropShadow_74_1688"/>
<feBlend mode="normal" in="SourceGraphic" in2="effect1_dropShadow_74_1688" result="shape"/>
</filter>
</defs>
</svg>
