<svg width="169" height="173" viewBox="0 0 169 173" fill="none" xmlns="http://www.w3.org/2000/svg">
<g clip-path="url(#clip0_74_830)">
<mask id="mask0_74_830" style="mask-type:luminance" maskUnits="userSpaceOnUse" x="0" y="0" width="169" height="173">
<path d="M0 0H169V173H0V0Z" fill="white"/>
</mask>
<g mask="url(#mask0_74_830)">
<path d="M84.5003 173C61.9296 173 40.7098 164.003 24.7496 147.665C8.78944 131.327 0 109.605 0 86.4996C0 63.3948 8.78944 41.6726 24.7496 25.3347C40.7098 8.9968 61.9296 0 84.5003 0C107.071 0 128.291 8.9968 144.251 25.3347C160.211 41.6726 169 63.3948 169 86.4996C169 109.605 160.211 131.327 144.251 147.665C128.291 164.003 107.071 173 84.5003 173Z" fill="#630B0C"/>
</g>
<path d="M84.5002 5.48056C63.3593 5.48056 43.4844 13.908 28.536 29.2108C13.5876 44.513 5.35441 64.8584 5.35441 86.4997C5.35441 108.141 13.5876 128.486 28.536 143.789C43.4844 159.091 63.36 167.519 84.5002 167.519C105.64 167.519 125.516 159.091 140.464 143.789C155.413 128.486 163.646 108.14 163.646 86.4997C163.646 64.8591 155.413 44.5137 140.464 29.2108C125.516 13.908 105.64 5.48056 84.5002 5.48056ZM84.5002 169.464C62.8525 169.464 42.5002 160.834 27.1924 145.164C11.8846 129.494 3.45459 108.66 3.45459 86.4997C3.45459 64.3395 11.8846 43.5049 27.1924 27.8354C42.4996 12.1653 62.8525 3.53578 84.5002 3.53578C106.149 3.53578 126.501 12.1653 141.808 27.8354C157.116 43.5056 165.546 64.3395 165.546 86.4997C165.546 108.66 157.116 129.494 141.808 145.164C126.5 160.834 106.148 169.464 84.5002 169.464Z" fill="white"/>
<path d="M36.4381 133.079L36.4118 133.053L29.1028 139.299L26.9463 137.155L37.97 128.846L40.5261 131.389L34.5995 139.062L34.6259 139.088L41.9987 132.852L44.5166 135.357L36.735 146.889L34.5396 144.706L40.4668 137.059L40.4155 137.06L32.9123 143.088L30.717 140.904" fill="white"/>
<path d="M35.6574 125.942L24.5989 133.87L20.4365 127.787L22.6484 126.202L24.9932 129.629L27.0279 128.17L24.7555 124.849L26.9674 123.263L29.2398 126.584L31.6287 124.871L29.1601 121.264L31.372 119.677" fill="white"/>
<path d="M25.259 117.773L26.1154 117.341C26.8092 116.991 27.3115 116.45 26.8658 115.525C26.54 114.847 25.7994 114.851 25.1859 115.161C24.1682 115.673 24.1945 116.728 24.1083 117.717C24.0372 118.861 23.9345 119.858 23.5836 120.713C23.2249 121.552 22.6331 122.24 21.5673 122.777C19.2903 123.926 17.4517 123.107 16.3695 120.859C15.1523 118.33 16.1792 116.21 18.5201 115.194L19.8083 117.872C19.1139 118.263 18.1291 118.719 18.526 119.71C18.7636 120.329 19.2541 120.514 19.8182 120.311C20.5851 120.027 20.7734 119.46 20.8827 118.686C21.0354 117.253 21.0025 116.099 21.2895 115.111C21.5772 114.125 22.194 113.321 23.6633 112.58C25.9883 111.407 27.9165 112.078 29.0783 114.492C30.3587 117.153 29.4463 119.01 27.8473 119.816L26.5558 120.467" fill="white"/>
<path d="M13.5884 113.737L11.1323 105.719L13.7089 104.892L14.4738 107.389L24.7793 104.081L25.7272 107.176L15.4217 110.484L16.1643 112.911" fill="white"/>
<path d="M23.6705 99.9029L10.323 101.98L9.23291 94.6386L11.9023 94.2235L12.5164 98.359L14.9725 97.977L14.3768 93.9688L17.0461 93.553L17.6419 97.5612L20.5245 97.1124L19.8781 92.7585L22.5474 92.3434" fill="white"/>
<path d="M14.6411 87.1135L14.6497 86.0077C14.6569 85.0684 13.8123 84.8406 12.9842 84.8339C11.3819 84.821 11.3049 85.5023 11.3293 87.0873L14.6411 87.1135ZM22.3997 87.1755L22.3747 90.4182L8.87451 90.311L8.91006 85.5751C8.93047 82.9214 9.98438 81.6033 12.6669 81.6249C14.1066 81.6364 15.1302 81.9942 15.7319 83.3628L15.7681 83.3635C15.9728 82.4618 16.5896 81.8217 17.5264 81.7738C18.6066 81.6903 20.9291 81.6903 21.7947 81.513C21.9751 81.4409 22.1377 81.35 22.2647 81.2037L22.4451 81.2051L22.4181 84.7429C22.1653 84.8332 21.9125 84.9053 21.6426 84.9215C20.4538 84.9673 19.3386 84.8844 18.5099 84.97C17.6811 85.0556 17.1393 85.3089 17.0794 86.0643L17.0715 87.1331" fill="white"/>
<path d="M15.6347 75.5985L15.6644 75.6416L23.1267 76.6753L22.6099 79.7064L9.30859 77.331L9.8688 74.0446L17.7208 72.903L17.7301 72.8484L10.2467 71.8302L10.7634 68.7985L24.0647 71.1739L23.5072 74.4421" fill="white"/>
<path d="M26.0089 64.1555L13.8892 58.0665L15.8561 53.964L23.7365 56.055L23.7523 56.022L17.3392 50.8709L19.2904 46.8014L31.4101 52.8905L30.0777 55.6689L20.7182 50.598L20.7024 50.631L29.2207 57.456L28.1819 59.6231L17.7204 56.8508L17.7046 56.8838L27.3334 61.3927" fill="white"/>
<path d="M32.8601 51.1304L21.8496 43.1302L23.6836 40.4853L34.6941 48.4854L32.8601 51.1304Z" fill="white"/>
<path d="M32.2481 39.3215L32.2501 39.3741L37.9779 44.3789L35.9398 46.6411L26.0142 37.2723L28.2227 34.8201L35.4277 38.2117L35.4645 38.1712L29.7118 33.1671L31.7492 30.9049L41.6755 40.2737L39.4788 42.7124" fill="white"/>
<path d="M44.187 34.9063C45.9525 33.6873 45.4357 32.9777 44.2883 31.5572L41.5802 27.9931C40.594 26.7242 40.126 26.9796 38.8818 27.9237L44.187 34.9063ZM43.1778 38.8613L34.8887 27.9514L37.6034 25.7903C38.5125 25.0659 39.629 24.2242 40.804 24.0598C42.2121 23.8718 43.1752 24.8091 43.9711 25.857L47.6509 30.7007C48.4658 31.8032 48.7469 32.8638 48.3756 33.9063C48.0537 34.8625 47.3132 35.5694 46.5456 36.18" fill="white"/>
<path d="M49.9871 20.4472L49.9549 20.4647L52.0061 26.3644L53.6242 25.4756L49.9871 20.4472ZM50.9311 32.7695L47.1479 19.1621L50.5105 17.315L59.4803 28.0726L56.6569 29.6232L55.0178 27.4709L52.829 28.6737L53.7387 31.227" fill="white"/>
<path d="M60.9517 19.3434L60.9286 19.3899L63.5874 26.6023L60.7357 27.578L56.4556 14.4686L59.5462 13.4113L64.2596 19.9404L64.3109 19.9229L61.629 12.6984L64.4807 11.7233L68.7609 24.832L65.6874 25.8832" fill="white"/>
<path d="M73.1863 12.509L73.1507 12.5144L73.1691 18.7773L74.984 18.4896L73.1863 12.509ZM70.0752 24.452L70.9257 10.3311L74.6977 9.73334L79.6638 22.9317L76.4974 23.4337L75.6502 20.8454L73.1955 21.2349L73.2238 23.9533" fill="white"/>
<path d="M86.4783 13.1512C86.4881 12.3035 86.4276 11.2893 85.3835 11.2765C84.3757 11.265 84.2381 12.2765 84.2282 13.1242L84.165 18.8002C84.1558 19.592 84.2684 20.7733 85.2947 20.7854C86.3203 20.7976 86.4058 19.619 86.4144 18.8265L86.4783 13.1512ZM89.586 18.5873C89.5505 21.7019 88.4702 23.3111 85.2664 23.2727C82.0625 23.235 80.9644 21.6001 80.9993 18.4862L81.0625 12.8662C81.0928 10.2125 82.6576 8.75691 85.4296 8.78925C88.2017 8.82227 89.6788 10.3135 89.6492 12.9672" fill="white"/>
<path d="M99.9767 20.1392L99.739 21.0853C99.5455 21.8528 99.6192 22.5948 100.595 22.8522C101.31 23.0409 101.79 22.4634 101.961 21.7848C102.244 20.6608 101.445 19.993 100.769 19.282C99.9662 18.4808 99.2947 17.7524 98.8899 16.9222C98.5021 16.0967 98.3777 15.189 98.6739 14.011C99.3065 11.4948 101.112 10.5999 103.483 11.2253C106.15 11.9281 107.052 14.1067 106.28 16.5866L103.456 15.8419C103.618 15.0475 103.922 13.9861 102.929 13.6478C102.315 13.4295 101.859 13.6896 101.641 14.2604C101.353 15.04 101.65 15.5569 102.152 16.1459C103.115 17.1984 103.992 17.9242 104.536 18.7908C105.08 19.6574 105.274 20.6601 104.866 22.2841C104.219 24.8542 102.466 25.9142 99.9201 25.2431C97.1131 24.5032 96.3318 22.5853 96.7761 20.8185L97.1349 19.3905" fill="white"/>
<path d="M110.565 13.7038L118.107 17.0199L117.042 19.5597L114.693 18.5266L110.431 28.6852L107.52 27.4055L111.782 17.247L109.5 16.2436" fill="white"/>
<path d="M122.77 22.6601L122.739 22.6406L118.787 27.421L120.35 28.4062L122.77 22.6601ZM112.837 29.6872L122.428 19.5017L125.678 21.5496L121.1 34.8935L118.371 33.1745L119.366 30.6414L117.25 29.3085L115.55 31.3968" fill="white"/>
<path d="M129.744 24.3502L136.043 29.7378L134.312 31.8584L132.351 30.1812L125.425 38.6652L122.994 36.5856L129.919 28.1016L128.013 26.4709" fill="white"/>
<path d="M128.569 41.5655L138.668 32.3935L143.482 37.9488L141.463 39.7831L138.751 36.6537L136.892 38.3417L139.521 41.3741L137.5 43.2084L134.873 40.176L132.691 42.1571L135.546 45.451L133.526 47.2853" fill="white"/>
<path d="M149.496 46.6923L150.97 49.563L141.952 54.4168C141.378 54.7255 140.976 55.1709 141.395 55.9863C141.781 56.7369 142.535 56.6224 143.045 56.3481L151.984 51.5367L153.459 54.4074L144.806 59.0645C142.783 60.1535 140.743 60.0645 139.236 57.1285C137.987 54.6978 138.39 52.6695 140.844 51.3487" fill="white"/>
<path d="M150.299 62.9554L150.253 62.9318L143.185 65.5929L142.256 62.6656L155.098 58.394L156.104 61.5666L149.687 66.3362L149.704 66.3894L156.783 63.7047L157.712 66.6313L144.872 70.903L143.87 67.7486" fill="white"/>
<path d="M145.244 73.116L158.517 70.5802L159.097 73.7689L145.825 76.304L145.244 73.116Z" fill="white"/>
<path d="M146.387 80.912L159.702 77.1316L159.881 80.3702L150.518 82.5737L150.52 82.6108L160.066 83.7193L160.245 86.9572L146.597 84.7206" fill="white"/>
<path d="M146.645 89.2416L160.078 90.6257L159.351 98.0147L156.665 97.7377L157.074 93.5759L154.602 93.3212L154.206 97.355L151.519 97.078L151.916 93.0442L149.015 92.7457L148.583 97.1272L145.897 96.8503" fill="white"/>
<path d="M152.276 103.949L151.998 105.017C151.762 105.925 152.523 106.362 153.324 106.58C154.872 107.002 155.113 106.363 155.477 104.822L152.276 103.949ZM144.778 101.904L145.594 98.7701L158.641 102.328L157.45 106.904C156.782 109.469 155.439 110.476 152.848 109.768C151.456 109.39 150.552 108.78 150.304 107.301L150.269 107.292C149.851 108.113 149.097 108.574 148.178 108.381C147.111 108.185 144.863 107.591 143.981 107.542C143.789 107.565 143.609 107.612 143.451 107.72L143.277 107.673L144.167 104.254C144.433 104.232 144.695 104.227 144.961 104.28C146.123 104.54 147.183 104.905 148.006 105.034C148.83 105.164 149.416 105.057 149.658 104.341L149.928 103.308" fill="white"/>
<path d="M145.825 113.241L144.955 112.841C144.249 112.516 143.521 112.464 143.109 113.406C142.806 114.095 143.281 114.677 143.905 114.964C144.939 115.44 145.717 114.747 146.516 114.185C147.424 113.512 148.239 112.958 149.107 112.69C149.967 112.44 150.862 112.467 151.946 112.966C154.261 114.031 154.816 116.004 153.812 118.289C152.684 120.861 150.433 121.402 148.177 120.202L149.372 117.479C150.11 117.778 151.081 118.265 151.574 117.32C151.889 116.738 151.715 116.234 151.203 115.917C150.501 115.493 149.954 115.706 149.301 116.113C148.125 116.905 147.277 117.667 146.351 118.069C145.424 118.471 144.426 118.497 142.932 117.81C140.567 116.722 139.844 114.773 140.921 112.319C142.109 109.613 144.089 109.15 145.714 109.898L147.028 110.501" fill="white"/>
<path d="M138.519 117.943L150.069 125.1L148.429 127.874L136.878 120.718L138.519 117.943Z" fill="white"/>
<path d="M146.591 130.869L141.524 137.481L139.4 135.775L140.977 133.716L132.479 126.89L134.435 124.338L142.933 131.164L144.467 129.163" fill="white"/>
<path d="M132.911 139.925L132.885 139.951L134.699 144.388L132.377 146.594L129.436 138.451L125.578 134.197L127.899 131.99L131.758 136.244L139.421 139.898L137.073 142.13" fill="white"/>
<path d="M46.6714 151.971L45.9999 153.049L41.75 150.272L42.4563 149.14L46.8122 147.772L46.8208 147.758L44.5043 146.244L45.1757 145.167L49.1472 147.762L48.4415 148.894L44.0856 150.262L44.077 150.275" fill="white"/>
<path d="M51.3897 153.221L51.7313 151.166L51.7168 151.159L50.2739 152.63L51.3897 153.221ZM51.1678 154.534L49.3549 153.572L48.482 154.459L47.0391 153.693L51.7583 149.225L53.3481 150.068L52.4982 156.588L50.9644 155.775" fill="white"/>
<path d="M62.5535 154.067L60.3575 159.835L58.8283 159.224L60.368 155.335L60.3535 155.329L57.5986 158.734L56.4723 158.284L56.7902 153.907L56.7757 153.901L55.338 157.832L53.8892 157.254L56.0852 151.486L58.1489 152.31L57.7836 156.676L57.7987 156.682L60.497 153.247" fill="white"/>
<path d="M65.2353 156.161L64.9292 157.318L65.9074 157.589C66.2636 157.688 66.5605 157.52 66.6526 157.171C66.7428 156.829 66.569 156.531 66.2129 156.432L65.2353 156.161ZM66.2879 159.535C66.388 159.154 66.1833 158.822 65.7817 158.711L64.6442 158.397L64.3078 159.669L65.4447 159.984C65.8469 160.095 66.1872 159.915 66.2879 159.535ZM67.904 160.099C67.6249 161.154 66.4834 161.595 65.0504 161.199L62.3975 160.463L63.9773 154.489L66.4709 155.18C67.8507 155.562 68.5965 156.493 68.328 157.51C68.1891 158.037 67.7368 158.362 67.0878 158.448L67.0831 158.464C67.7474 158.906 68.064 159.494 67.904 160.099Z" fill="white"/>
<path d="M73.6734 159.885C73.8545 158.783 73.4647 157.957 72.6906 157.824C71.9158 157.69 71.2832 158.34 71.1022 159.442C70.9211 160.544 71.3108 161.369 72.0856 161.502C72.8598 161.636 73.4924 160.987 73.6734 159.885ZM69.4294 159.154C69.7382 157.275 71.1291 156.227 72.9026 156.532C74.676 156.837 75.6549 158.294 75.3461 160.173C75.0374 162.052 73.6464 163.1 71.873 162.794C70.0996 162.489 69.1207 161.032 69.4294 159.154Z" fill="white"/>
<path d="M79.6934 161.163L79.2148 159.137L79.199 159.136L78.4406 161.07L79.6934 161.163ZM79.9955 162.459L77.9594 162.308L77.4993 163.474L75.8779 163.354L78.4913 157.343L80.2766 157.475L82.0099 163.808L80.2871 163.681" fill="white"/>
<path d="M88.6672 157.523L88.7956 163.71L87.273 163.744L84.9295 160.177L84.9137 160.178L85.0361 163.792L83.4819 163.826L83.3535 157.639L84.8761 157.606L87.2196 161.18L87.2354 161.18L87.113 157.557" fill="white"/>
<path d="M95.9934 159.572L96.3818 162.892L94.9086 163.073L94.8171 162.29L94.8013 162.292C94.5656 162.847 93.8803 163.279 93.0772 163.377C91.6198 163.556 90.4981 162.414 90.2769 160.523C90.0557 158.631 91.1017 157.224 92.887 157.006C94.4228 156.818 95.6235 157.618 95.8809 159.011L94.3293 159.201C94.1943 158.586 93.6782 158.228 93.039 158.306C92.259 158.402 91.8311 159.207 91.9608 160.316C92.0905 161.426 92.6915 162.106 93.4715 162.01C94.0245 161.942 94.4603 161.475 94.5689 160.847L94.5663 160.823L93.3188 160.976L93.1951 159.914" fill="white"/>
<path d="M100.776 159.461L99.7543 157.657L99.7391 157.661L99.5489 159.737L100.776 159.461ZM101.426 160.616L99.431 161.064L99.3139 162.316L97.7261 162.673L98.5621 156.148L100.311 155.755L103.732 161.324L102.044 161.703" fill="white"/>
<path d="M106.147 157.386C105.521 155.593 106.228 153.986 107.92 153.367C109.399 152.826 110.771 153.365 111.353 154.723L109.852 155.272C109.574 154.64 108.979 154.371 108.351 154.601C107.619 154.868 107.377 155.75 107.744 156.802C108.111 157.854 108.845 158.38 109.577 158.112C110.205 157.882 110.501 157.296 110.331 156.642L111.832 156.093C112.216 157.505 111.486 158.805 110.007 159.345C108.314 159.965 106.773 159.18 106.147 157.386Z" fill="white"/>
<path d="M111.725 151.93L113.227 151.254L115.662 156.918L114.159 157.595L111.725 151.93Z" fill="white"/>
<path d="M119.319 149.56L117.849 150.342L120.061 154.699L118.606 155.473L116.393 151.116L114.923 151.899L114.347 150.764L118.743 148.426" fill="white"/>
<path d="M124.686 149.489L125.776 151.237L124.393 152.14L123.289 150.372L119.232 148.169L120.814 147.136L123.28 148.623L123.293 148.615L123.005 145.704L124.488 144.735" fill="white"/>
<path d="M76.4099 148.84L75.4962 154.958L73.8742 154.704L74.4706 150.708L73.0737 150.489L73.2317 149.433C74.3416 149.606 74.9104 149.362 75.3001 148.667" fill="white"/>
<path d="M80.9941 151.191C81.0211 150.758 80.7479 150.482 80.293 150.452C79.8309 150.422 79.5333 150.652 79.505 151.093C79.4774 151.534 79.744 151.801 80.2061 151.832C80.6682 151.862 80.9658 151.632 80.9941 151.191ZM82.7616 152.475C82.6358 154.473 81.5898 155.587 79.929 155.477C78.5663 155.387 77.7573 154.609 77.7178 153.366L79.3003 153.471C79.3378 153.876 79.5807 154.142 79.9803 154.169C80.6228 154.211 81.0336 153.562 81.1145 152.399L81.0987 152.398C80.7485 152.834 80.1844 153.046 79.4484 152.998C78.3438 152.925 77.7342 152.232 77.8034 151.134C77.8883 149.786 78.8481 149.044 80.368 149.144C82.0131 149.253 82.888 150.471 82.7616 152.475Z" fill="white"/>
<path d="M87.65 152.386C87.6099 151.213 87.2801 150.534 86.762 150.553C86.2446 150.571 85.9622 151.273 86.003 152.446C86.0431 153.618 86.373 154.298 86.891 154.279C87.4084 154.26 87.6908 153.559 87.65 152.386ZM84.3079 152.507C84.2388 150.507 85.14 149.301 86.7166 149.243C88.2938 149.186 89.276 150.325 89.3451 152.325C89.4136 154.316 88.513 155.531 86.9364 155.589C85.3592 155.646 84.377 154.499 84.3079 152.507Z" fill="white"/>
<path d="M92.2688 152.589L92.272 152.612L93.6334 152.421L93.3562 150.358L93.3411 150.36L92.2688 152.589ZM96.1671 153.346L95.3897 153.456L95.551 154.658L93.925 154.886L93.7637 153.684L90.9943 154.074L90.8159 152.744L92.7513 148.805L94.7275 148.526L95.2205 152.197L95.9986 152.088" fill="white"/>
<path d="M142.764 86.4997C142.764 119.439 116.678 146.142 84.5005 146.142C52.3221 146.142 26.2368 119.439 26.2368 86.4997C26.2368 53.5603 52.3221 26.857 84.5005 26.857C116.678 26.857 142.764 53.5603 142.764 86.4997Z" fill="white"/>
<path d="M89.4493 41.2393C89.4493 41.2393 88.9681 42.3573 88.2229 42.178C88.0294 42.1315 87.8865 41.9651 87.8332 41.7697C87.6443 41.0796 87.2276 40.7333 87.2276 40.7333C86.9787 41.7528 86.1065 41.6255 86.2316 40.5419C86.356 39.4583 85.1105 38.9482 85.1105 38.9482C85.7254 41.4085 82.4326 42.7414 82.4326 42.7414H87.9129C87.9168 42.6976 87.9168 42.6572 87.9194 42.6154L89.1379 42.5615C89.1379 42.5615 89.8074 42.3708 89.4493 41.2393Z" fill="#630B0C"/>
<path d="M38.4132 101.697L37.0104 101.118L37.119 100.798L36.8741 100.933L36.8642 100.914L37.1295 100.769L37.3408 100.148L37.6489 100.236L38.4132 101.697ZM78.2705 140.073C78.258 140.443 78.2929 141.205 78.5081 141.821C78.7148 141.267 78.9163 140.519 78.83 139.858C78.7155 138.988 78.8866 137.98 79.5271 137.691C79.8464 137.547 80.3579 137.533 80.978 138.291C81.184 138.542 81.4177 138.729 81.6435 138.909C81.8864 139.104 82.1451 139.311 82.3532 139.593C82.3894 139.282 82.3314 138.968 82.0675 138.73C81.082 137.843 80.745 137.278 80.9049 136.779C80.9945 136.498 81.2393 136.309 81.5639 136.265C81.7969 136.208 82.0326 136.179 82.2696 136.176C81.6185 135.844 80.9504 135.988 80.217 136.147C79.7575 136.247 79.2816 136.349 78.8254 136.307C77.9808 136.228 77.1402 135.185 76.9901 134.027C76.6721 131.579 79.2579 130.321 80.3842 129.893L80.4718 129.86L80.6528 129.863C81.1327 129.868 85.3852 129.976 86.3351 132.179C86.4293 132.397 86.5168 132.606 86.5991 132.806C87.004 133.778 87.2686 134.364 87.6721 134.676C87.395 134.128 87.2488 133.468 87.6208 132.873C87.9137 132.404 88.285 132.127 88.7241 132.048C89.2639 131.952 89.8491 132.162 90.5146 132.689C91.1663 133.205 91.7206 133.492 92.238 133.559C91.6376 133.225 91.0175 132.767 90.7529 132.211C90.5857 131.86 90.5633 131.489 90.6884 131.138C90.7917 130.847 91.0004 130.63 91.2907 130.511C91.8983 130.263 92.8278 130.513 93.5164 130.775C93.4578 130.647 93.3749 130.523 93.2557 130.418C92.787 130.007 91.8733 129.98 90.6127 130.339L89.4956 130.658L90.0907 129.493C89.433 130.126 88.6714 130.763 87.5503 130.763H87.526C85.9961 130.751 85.5998 130.62 84.6967 130.112L84.5795 130.046L83.9818 129.044L84.7388 128.934C87.5214 128.533 89.5436 127.035 90.7503 124.483L91.1861 123.562L91.6475 124.469C91.7825 124.735 92.5112 126.071 93.5934 126.297C94.151 126.413 94.7507 126.209 95.3767 125.691L95.8671 125.128L96.2345 125.64C96.8651 126.521 97.6281 127.033 98.5029 127.161C100.209 127.414 101.838 126.157 101.854 126.145L101.983 126.057L102.17 125.933L102.385 125.991C104.1 126.457 105.321 125.877 106.119 124.221L106.133 124.194L106.267 123.953L106.541 123.928C107.987 123.834 109.35 122.981 110.593 121.393L110.727 121.223L110.939 121.203C112.372 121.066 113.537 120.279 114.401 118.861L114.535 118.641L114.787 118.621C116.331 118.496 117.408 117.853 118.059 116.663L117.184 116.839L118.502 115.565L118.521 115.508L118.763 115.476V115.477L118.833 115.468C120.554 115.243 121.669 114.374 122.241 112.811L122.336 112.552L122.6 112.491C124.445 112.059 125.79 110.887 126.597 109.007L126.734 108.71L126.963 108.651C129.314 108.04 130.518 106.609 130.644 104.277L130.648 104.206L130.748 103.91L130.899 103.813C132.374 102.873 133.181 101.541 133.364 99.7391L133.393 99.4669L133.628 99.3388C137.157 97.417 137.889 93.9634 138.038 92.4492C136.859 92.8872 135.704 93.1891 135.447 93.2545L133.653 93.7094L134.975 92.3879C138.77 88.59 139.17 83.7543 139.14 81.6256L134.929 85.8824L132.765 89.0199L134.056 85.3979C135.746 80.6525 134.646 76.0129 133.885 73.7588C129.442 90.3299 119.719 95.3394 116.775 96.4985C113.268 97.8792 109.178 103.079 105.221 108.108C103.852 109.848 102.559 111.493 101.282 112.993C99.0816 115.58 95.9797 116.568 92.3124 115.849L91.9582 115.78L91.9089 115.414C91.901 115.351 91.036 109.134 87.7603 106.879C86.5965 106.078 85.2398 105.873 83.7277 106.27L83.5677 106.311L83.415 106.248C83.4025 106.243 82.0589 105.708 80.955 106.208C80.6173 106.361 80.3316 106.6 80.0998 106.925C80.8213 106.936 81.8088 107.084 82.5125 107.712C83.101 108.237 83.386 108.984 83.3577 109.931C83.3419 110.466 83.2346 111.014 83.0378 111.559C82.5256 112.979 81.4118 114.159 79.982 114.795C77.6405 115.834 71.7574 117.739 67.7195 112.994C66.4424 111.493 65.1482 109.848 63.7783 108.107C59.8226 103.079 55.7327 97.8799 52.2254 96.4985C49.2822 95.3394 39.5599 90.3319 35.1171 73.7588C34.3548 76.0136 33.2555 80.6525 34.9447 85.3972L36.283 89.1554L34.0698 85.8797L29.864 81.6269C29.8364 83.7584 30.2419 88.6001 34.027 92.3872L34.6563 93.0159L34.6741 92.9957L35.1415 93.4027L35.0941 93.454L35.3416 93.7013L34.9559 93.6049L34.4299 94.1757L33.9967 93.7545L34.2811 93.4351L33.557 93.2538C33.3997 93.2141 32.1917 92.9061 30.9568 92.4465C31.0937 93.9587 31.8053 97.3954 35.3732 99.3388L35.6095 99.4669L35.6372 99.7391C35.8255 101.596 36.6747 102.956 38.2348 103.898L41.5032 105.871L38.4356 105.003C38.797 107.144 40.2465 108.396 42.8474 108.819L43.0561 108.854L43.8974 110.072L42.8546 109.892C43.6762 111.258 44.8651 112.13 46.4015 112.491L46.6642 112.553L46.7596 112.811C47.333 114.374 48.4475 115.243 50.1676 115.468L50.2386 115.477V115.477C50.4447 115.502 50.6619 115.516 50.9029 115.521L51.0734 115.525L52.9495 117.074L50.9443 116.667C51.5947 117.855 52.6723 118.496 54.2134 118.621L54.4655 118.642L54.5991 118.861C55.4641 120.278 56.6286 121.065 58.0617 121.202L58.2744 121.222L58.3975 121.38L58.3981 121.333L58.3975 121.223H58.4106L58.5759 121.229L60.269 122.385L59.221 122.311C60.3578 123.43 61.5776 123.977 62.8646 123.936L63.0048 123.932L65.114 125.153L63.3728 125.03C64.3076 126.241 65.6755 126.465 67.4522 125.694L67.5852 125.637L69.146 125.894L67.909 126.618C65.9599 127.741 63.1279 127.847 59.4915 126.934C57.7056 126.486 56.1817 125.901 55.347 125.553C55.3588 127.611 56.2659 128.914 58.1045 129.527L58.4481 129.641L58.4514 130.012C58.4639 131.58 59.1756 132.397 60.6929 132.584L60.9753 132.619L61.0912 132.885C61.7811 134.464 63.0891 134.985 65.0896 134.477L65.4477 134.386L66.0086 135.332L65.3674 135.482C66.1001 136.127 67.023 136.19 68.1671 135.681L68.2961 135.924L68.3119 135.893C69.5495 136.562 70.7114 136.447 71.8634 135.54C72.8916 134.73 73.6697 133.47 74.141 132.555L74.2141 132.414L74.7342 132.143L74.9757 132.306C75.8598 132.904 77.2646 134.614 76.2535 136.821L76.1561 137.034L75.9349 137.097C75.8118 137.135 74.7019 137.517 74.7644 138.96C74.7809 139.33 74.8875 139.635 75.0363 139.881C75.0225 139.492 75.0672 139.075 75.2285 138.691C75.4543 138.152 75.8592 137.767 76.4299 137.546C77.2034 137.245 77.6648 137.453 77.9163 137.681C78.6069 138.307 78.3574 139.687 78.2705 140.073ZM78.7063 143.704L78.2422 143.272C77.1836 142.287 77.2574 140.209 77.2692 139.975L77.283 139.879C77.4121 139.336 77.4252 138.608 77.2501 138.45C77.2027 138.407 77.0408 138.408 76.786 138.507C76.476 138.627 76.2686 138.819 76.1528 139.094C75.8815 139.735 76.1547 140.699 76.2831 141.016L76.7696 142.219L75.6117 141.681C75.1963 141.488 73.8356 140.724 73.7612 139.005C73.6901 137.365 74.7118 136.502 75.424 136.194C75.9224 134.889 75.2522 133.94 74.7908 133.478C74.2628 134.421 73.4834 135.561 72.4756 136.354C71.0537 137.474 69.4909 137.648 67.9492 136.858C66.416 137.336 65.1232 136.932 64.1713 135.674C62.0029 135.85 60.8779 134.72 60.2966 133.564C58.5607 133.259 57.5884 132.166 57.4614 130.384C55.2048 129.492 54.1397 127.55 54.376 124.744L54.4372 124.017L55.0856 124.321C55.1449 124.349 59.4849 126.359 63.436 126.509C62.9199 126.137 62.4749 125.609 62.1102 124.93C60.5356 124.741 59.0748 123.826 57.7556 122.201C56.1672 121.99 54.8664 121.122 53.8836 119.622C51.8679 119.384 50.4421 118.29 49.7344 116.44C47.8984 116.117 46.6168 115.105 45.919 113.427C43.9323 112.887 42.4656 111.594 41.5552 109.581C39.0168 108.84 37.5798 107.122 37.3685 104.555C35.8334 103.505 34.9269 102.015 34.6702 100.116C29.7692 97.2809 29.914 91.896 29.9226 91.6642L29.9509 90.9249L30.6178 91.21C31.1148 91.4216 31.6447 91.6109 32.1265 91.7686C28.1202 86.6486 28.8937 80.666 28.9319 80.3924L29.0721 79.3816L33.4411 83.7995C32.0601 77.5568 34.6484 72.1355 34.7709 71.8855L35.3831 70.6301L35.7076 71.9933C39.8311 89.2996 49.6692 94.3906 52.5861 95.5389C56.3449 97.0194 60.5217 102.328 64.5603 107.462C65.9243 109.196 67.2126 110.832 68.4771 112.319C71.9496 116.399 76.9249 115.031 79.5824 113.851C80.7614 113.327 81.6778 112.361 82.0958 111.202C82.2551 110.762 82.3413 110.324 82.3538 109.9C82.3729 109.267 82.2083 108.805 81.8529 108.487C81.1413 107.852 79.7885 107.92 79.3277 108L78.468 108.148L78.7741 107.313C79.1361 106.322 79.7358 105.633 80.556 105.264C81.8022 104.704 83.1675 105.078 83.6296 105.235C85.3714 104.816 86.9487 105.082 88.3205 106.026C91.5106 108.222 92.5994 113.448 92.8463 114.902C96.0311 115.433 98.6128 114.565 100.525 112.318C101.788 110.832 103.076 109.196 104.439 107.463C108.479 102.328 112.655 97.0194 116.415 95.5389C119.332 94.3906 129.171 89.2982 133.294 71.9933L133.619 70.6301L134.231 71.8848C134.353 72.1355 136.942 77.5561 135.559 83.8008L139.929 79.3823L140.07 80.3931C140.108 80.6666 140.881 86.6486 136.876 91.7686C137.359 91.6103 137.888 91.4209 138.383 91.21L139.05 90.9256L139.078 91.6642C139.087 91.896 139.232 97.2809 134.331 100.116C134.073 102.012 133.166 103.503 131.632 104.553C131.422 107.113 129.979 108.846 127.444 109.583C126.541 111.59 125.072 112.886 123.082 113.427C122.385 115.105 121.103 116.117 119.267 116.44C118.56 118.289 117.133 119.383 115.117 119.621C114.135 121.123 112.834 121.991 111.245 122.202C109.93 123.821 108.468 124.736 106.892 124.928C105.905 126.772 104.345 127.499 102.355 127.042C101.912 127.36 100.232 128.45 98.368 128.18C97.3713 128.035 96.4978 127.532 95.7638 126.681C94.9738 127.259 94.178 127.468 93.3926 127.304C92.4144 127.1 91.6883 126.352 91.2367 125.727C90.0841 127.715 88.418 129.031 86.2654 129.656C86.5609 129.708 86.9447 129.73 87.5345 129.736H87.5503C88.3897 129.736 88.9538 129.184 89.6068 128.546L89.7773 128.381C89.8484 128.311 91.1275 127.438 91.6041 127.795L91.9411 128.048L91.7601 128.445L91.4171 129.116C92.5105 128.962 93.3498 129.14 93.9199 129.647C94.7882 130.419 94.6434 131.626 94.6368 131.677L94.5446 132.39L93.9153 132.07C92.8871 131.547 91.8022 131.31 91.6357 131.481C91.61 131.552 91.5955 131.633 91.6561 131.761C91.9444 132.367 93.3275 132.994 93.9522 133.203L95.0061 133.556L94.0522 134.134C92.3683 135.156 90.9491 134.333 89.9004 133.503C89.4824 133.172 89.1348 133.02 88.8959 133.061C88.8399 133.071 88.6694 133.102 88.4673 133.426C88.1968 133.859 88.8847 134.763 89.2408 135.108L90.1091 135.954L88.9117 135.995C86.8644 136.069 86.3398 134.804 85.6755 133.208C85.5939 133.013 85.509 132.809 85.4168 132.594C84.8316 131.238 81.7805 130.905 80.6462 130.891C78.7734 131.622 77.8294 132.686 77.9854 133.891C78.0973 134.75 78.6957 135.263 78.9163 135.283C79.223 135.312 79.6048 135.229 80.009 135.141C81.1748 134.888 82.7718 134.542 84.1444 136.623L84.8152 137.64L82.8166 137.259C82.7705 137.251 82.7244 137.243 82.6777 137.236L82.6257 137.228C82.4216 137.198 82.2182 137.196 82.0181 137.223C82.1372 137.379 82.3505 137.617 82.731 137.959C83.8955 139.007 83.205 140.65 82.677 141.373L81.7502 142.64L81.7726 141.057C81.7831 140.326 81.5139 140.111 81.0247 139.72C80.7706 139.516 80.4823 139.285 80.2085 138.951C80.0715 138.784 79.9748 138.706 79.9195 138.67C79.8464 138.814 79.7556 139.193 79.8253 139.721C80.032 141.299 79.0584 143.072 79.0163 143.146" fill="#630B0C"/>
<path d="M118.791 115.993L118.795 115.989C118.802 115.988 118.811 115.988 118.82 115.987L118.791 115.993ZM58.4 121.738C58.4046 121.738 58.4099 121.737 58.4145 121.738L58.4165 121.738L58.4 121.738ZM50.1806 115.987C50.4143 116.015 50.652 116.03 50.8909 116.035C50.9436 116.078 50.9949 116.12 51.0463 116.163L50.1806 115.987ZM37.1979 100.641C37.2335 100.652 37.271 100.661 37.3072 100.671L37.3171 100.69L37.1979 100.641ZM34.4094 93.4479L34.3469 93.3859C34.3686 93.4048 34.3916 93.4243 34.414 93.4432L34.4094 93.4479ZM135.325 92.7552C140.556 87.5226 139.573 80.4652 139.573 80.4652L134.544 85.5488L134.527 85.5737C136.984 78.6781 133.781 72.1146 133.781 72.1146C130.045 87.7962 121.452 94.1063 116.595 96.0187C111.738 97.9311 105.947 106.728 100.903 112.656C98.3593 115.645 95.0567 115.863 92.4064 115.344C92.4058 115.341 90.8884 103.86 83.6025 105.772C83.6025 105.772 80.3644 104.433 79.244 107.493C79.244 107.493 82.9455 106.854 82.856 109.916C82.8402 110.441 82.7277 110.935 82.5664 111.38C82.0858 112.713 81.0556 113.756 79.7818 114.323C77.2599 115.442 71.8514 117.068 68.0979 112.656C63.0534 106.728 57.2625 97.9318 52.4057 96.0187C47.5488 94.1069 38.9562 87.7968 35.2198 72.1153C35.2198 72.1153 32.0178 78.6787 34.4733 85.5737L34.4555 85.5481L29.4288 80.4645C29.4288 80.4645 28.446 87.5219 33.6761 92.7545C33.3871 92.6817 31.7802 92.2619 30.4241 91.6837C30.4241 91.6837 30.2194 97.1144 35.1375 99.7923C35.3619 102.005 36.4758 103.433 37.9793 104.34L37.8549 104.305C38.0313 107.564 40.1865 108.906 42.7677 109.328L42.7901 109.36L41.9435 109.214C42.9243 111.496 44.5332 112.58 46.2888 112.991C47.007 114.948 48.4684 115.764 50.1036 115.977C50.8317 118.2 52.4577 118.994 54.1738 119.134C55.2383 120.878 56.6154 121.581 58.0149 121.714C59.6962 123.861 61.4025 124.496 62.879 124.451L62.9376 124.484L62.4314 124.448C63.7473 127.18 66.0059 126.88 67.6483 126.168L67.6621 126.17C63.2411 128.719 54.8762 124.788 54.8762 124.788C54.6201 127.827 55.9657 129.354 57.9491 130.016C57.9649 132.049 59.0748 132.903 60.6329 133.094C61.5486 135.193 63.3497 135.448 65.21 134.976L65.2185 134.989L64.424 135.158C65.5325 136.805 67.0262 136.749 68.3671 136.152L68.0775 136.347C71.3044 138.092 73.5933 134.718 74.5853 132.795L74.6419 132.765L74.6992 132.736C74.7071 132.741 76.8965 134.205 75.7985 136.602C75.7985 136.602 74.1798 137.07 74.2627 138.982C74.3148 140.177 75.1343 140.894 75.8196 141.213C75.8196 141.213 74.8025 138.727 76.6082 138.026C78.4139 137.325 77.7708 140.002 77.7708 140.002C77.7708 140.002 77.6667 142.042 78.5798 142.892C78.5798 142.892 79.5146 141.213 79.3276 139.79C79.1801 138.667 79.6074 137.417 80.5935 138.621C81.3479 139.542 82.2958 139.62 82.2748 141.065C82.2748 141.065 83.5229 139.356 82.3992 138.344C81.0187 137.102 81.3163 136.803 81.652 136.772C81.9923 136.685 82.3472 136.667 82.6947 136.719C82.7145 136.722 82.7329 136.725 82.7487 136.727C82.8027 136.735 82.8554 136.744 82.908 136.754L83.7276 136.91C82.0878 134.424 80.2406 135.922 78.8708 135.795C77.7359 135.689 75.7044 132.218 80.5586 130.375L80.6455 130.376C80.6455 130.376 85.029 130.423 85.8756 132.387C86.7228 134.35 86.9802 135.547 88.8951 135.482C88.8951 135.482 87.4561 134.09 88.044 133.149C88.4916 132.432 89.1637 132.269 90.2071 133.096C91.2505 133.922 92.4288 134.521 93.7961 133.692C93.7961 133.692 90.6844 132.651 91.1603 131.314C91.5283 130.279 94.1391 131.61 94.1391 131.61C94.1391 131.61 94.5156 128.694 90.4783 129.844L91.3078 128.22C91.3519 128.127 90.3664 128.518 90.1215 128.754C89.3862 129.465 88.6693 130.259 87.5299 130.25C86.0342 130.237 85.7288 130.106 84.9382 129.661L84.8092 129.444C88.1802 128.957 90.1136 127.009 91.2018 124.707C91.4862 125.265 93.1595 128.226 95.7249 126.064L95.8289 125.944C98.3923 129.522 102.16 126.552 102.16 126.552L102.256 126.488C103.751 126.893 105.483 126.705 106.569 124.448L106.573 124.442C107.941 124.352 109.473 123.646 110.985 121.715C112.386 121.581 113.763 120.878 114.826 119.134C116.544 118.994 118.17 118.2 118.897 115.977C120.532 115.764 121.994 114.949 122.711 112.991C124.468 112.58 126.076 111.495 127.056 109.214L127.086 109.149C129.274 108.58 130.989 107.197 131.145 104.305L131.164 104.25C132.594 103.339 133.645 101.935 133.864 99.7923C138.781 97.1144 138.576 91.6844 138.576 91.6844C137.22 92.2626 135.612 92.6824 135.325 92.7552Z" fill="white"/>
<path d="M87.0899 119.681C87.0069 119.681 86.9246 119.655 86.8555 119.605C86.762 119.537 86.7008 119.433 86.6863 119.318L86.5415 118.171C86.1077 118.713 85.5317 119.07 85.1038 119.088C84.7576 119.105 84.4916 118.89 84.4455 118.558C84.4093 118.299 84.358 117.871 84.3119 117.465C83.703 118.113 82.84 118.631 81.9592 118.333C81.5524 118.196 81.3226 117.871 81.3733 117.506C81.426 117.128 81.6347 116.115 81.788 115.388C80.7249 115.597 79.2286 115.257 78.8573 115.165C78.6394 115.11 78.5052 114.885 78.5578 114.661C78.6105 114.438 78.8304 114.301 79.0496 114.355C80.2582 114.654 81.7538 114.742 82.0533 114.398C82.1764 114.256 82.3779 114.217 82.5431 114.303C82.7083 114.39 82.7952 114.58 82.7551 114.765C82.7504 114.787 82.3035 116.847 82.1929 117.534C82.2633 117.562 82.4121 117.595 82.6412 117.554C82.9302 117.504 83.6642 117.267 84.2415 116.176C84.3264 116.016 84.5021 115.931 84.6773 115.965C84.8524 116 84.9847 116.147 85.0038 116.328C85.0057 116.342 85.1354 117.536 85.221 118.212C85.5863 118.046 86.3052 117.419 86.3513 116.605C86.3638 116.39 86.5336 116.22 86.7436 116.213C86.9536 116.2 87.1353 116.363 87.1616 116.576L87.4302 118.703C87.891 118.489 88.5539 118.015 88.5105 117.074C88.5006 116.871 88.6362 116.69 88.8304 116.647C89.0246 116.603 89.2207 116.71 89.2945 116.899L89.9988 118.7C90.5261 118.523 91.6623 117.847 92.002 115.288C92.0323 115.06 92.2364 114.899 92.4608 114.931C92.6833 114.962 92.8394 115.173 92.8091 115.4C92.2732 119.427 89.8685 119.591 89.7665 119.595C89.592 119.6 89.4334 119.499 89.3689 119.334L88.9996 118.389C88.5414 119.16 87.7041 119.554 87.1768 119.671C87.1478 119.678 87.1188 119.681 87.0899 119.681Z" fill="#630B0C"/>
<path d="M86.4101 107.915C86.2988 107.915 86.1876 107.868 86.1073 107.776C85.9506 107.598 85.7584 107.594 85.7603 107.595C85.5352 107.612 85.343 107.434 85.3298 107.204C85.3166 106.974 85.4871 106.777 85.7116 106.763C85.7709 106.759 86.2949 106.742 86.7135 107.22C86.8636 107.391 86.8491 107.655 86.6819 107.809C86.6043 107.88 86.5068 107.915 86.4101 107.915Z" fill="#630B0C"/>
<path d="M84.9228 110.314C83.9788 110.314 82.8768 109.906 82.0711 108.536C81.9552 108.34 82.0171 108.083 82.2093 107.964C82.4022 107.846 82.653 107.909 82.7682 108.106C84.0223 110.237 85.9524 109.267 86.034 109.224C86.2348 109.12 86.4796 109.203 86.5817 109.408C86.6831 109.613 86.6027 109.864 86.4026 109.968C86.0458 110.153 85.5153 110.314 84.9228 110.314Z" fill="#630B0C"/>
<path d="M88.7481 135.901C86.8984 135.901 86.4191 134.749 85.7622 133.17C85.6812 132.974 85.5956 132.769 85.5028 132.555C84.8952 131.145 81.7874 130.805 80.6407 130.794C80.4162 130.791 80.2358 130.602 80.2378 130.372C80.2404 130.143 80.4221 129.96 80.6453 129.96H80.6492C80.696 129.96 81.7993 129.975 83.0263 130.237C84.7569 130.607 85.8411 131.274 86.248 132.218C86.3421 132.436 86.429 132.645 86.5113 132.843C86.98 133.97 87.2644 134.653 87.9233 134.928C87.5639 134.356 87.2828 133.594 87.7008 132.924C87.9786 132.48 88.3282 132.218 88.7402 132.145C89.2524 132.054 89.8132 132.257 90.4564 132.766C91.3036 133.437 91.9935 133.73 92.6505 133.666C91.9685 133.333 91.1476 132.819 90.8382 132.168C90.6822 131.841 90.6611 131.496 90.7776 131.171C90.8718 130.907 91.0614 130.709 91.3253 130.602C91.9652 130.34 92.9934 130.663 93.6774 130.943C93.6201 130.737 93.5135 130.517 93.318 130.345C92.8249 129.911 91.8809 129.877 90.5867 130.246C90.4307 130.29 90.2635 130.236 90.1615 130.106C90.0594 129.977 90.0417 129.798 90.1174 129.651L90.4353 129.029C90.4215 129.04 90.4103 129.048 90.4011 129.057L90.2339 129.22C89.5401 129.898 88.7534 130.666 87.5501 130.666H87.5264C86.0182 130.653 85.6285 130.526 84.7418 130.026C84.545 129.915 84.4732 129.662 84.5818 129.46C84.6898 129.259 84.938 129.185 85.1348 129.296C85.8313 129.688 86.0663 129.821 87.5329 129.833H87.5494C88.4276 129.833 89.0319 129.242 89.6717 128.616L89.8422 128.451C90.018 128.28 90.3629 128.111 90.621 127.998C91.1706 127.759 91.3609 127.734 91.5472 127.874C91.7058 127.992 91.7598 128.221 91.6742 128.402L91.2457 129.24C92.401 129.044 93.2772 129.204 93.8571 129.72C94.6872 130.459 94.549 131.616 94.5424 131.664C94.5253 131.798 94.4463 131.914 94.3304 131.978C94.2139 132.041 94.075 132.043 93.9572 131.983C93.2515 131.624 92.062 131.198 91.6275 131.376C91.5669 131.401 91.5531 131.427 91.5426 131.457C91.5018 131.571 91.5103 131.678 91.5702 131.803C91.8599 132.413 93.1666 133.042 93.9223 133.296C94.0737 133.347 94.183 133.484 94.2001 133.647C94.2178 133.809 94.1408 133.967 94.0032 134.05C92.3687 135.042 90.983 134.237 89.9581 133.425C89.5183 133.077 89.1464 132.918 88.8798 132.966C88.6994 132.998 88.5381 133.131 88.3867 133.374C88.049 133.914 88.9219 134.935 89.1741 135.178C89.2939 135.294 89.334 135.472 89.2754 135.629C89.2175 135.786 89.0727 135.893 88.9081 135.898C88.8541 135.9 88.8001 135.901 88.7481 135.901Z" fill="#630B0C"/>
<path d="M74.3857 120.008C67.3677 120.008 60.5649 112.921 58.1984 107.47C57.003 104.718 54.3731 102.377 52.3772 100.898C49.9751 99.1185 47.4999 97.8435 46.1123 97.3698C43.5331 96.4897 37.2168 93.6433 34.2815 86.2314C31.443 79.0635 34.714 72.2163 34.8549 71.9279C34.9313 71.7716 35.0965 71.6799 35.265 71.7008C35.4348 71.7197 35.5744 71.8464 35.6146 72.0162C39.7486 89.367 49.6236 94.4769 52.5516 95.6299C56.2874 97.1003 60.4563 102.4 64.4877 107.524C65.851 109.257 67.1393 110.895 68.4045 112.382C71.9178 116.511 76.9392 115.131 79.6197 113.94C80.8224 113.406 81.7578 112.421 82.1851 111.235C82.347 110.786 82.4359 110.337 82.449 109.902C82.4681 109.239 82.2943 108.753 81.9171 108.414C81.0324 107.623 79.3281 107.901 79.311 107.904C79.1681 107.928 79.022 107.872 78.9298 107.757C78.8377 107.642 78.812 107.486 78.8627 107.346C79.2162 106.381 79.7988 105.711 80.5946 105.353C81.8355 104.794 83.2021 105.189 83.6254 105.336C85.3521 104.914 86.9135 105.173 88.2703 106.109C91.8882 108.603 92.7736 115.016 92.8091 115.289C92.8394 115.516 92.6834 115.726 92.4603 115.757C92.2364 115.786 92.0324 115.628 92.0021 115.4C91.9942 115.337 91.1285 109.082 87.8141 106.799C86.6265 105.981 85.2441 105.771 83.7044 106.175C83.6201 106.197 83.5312 106.191 83.4503 106.158C83.4378 106.153 82.06 105.601 80.9179 106.118C80.5123 106.302 80.1786 106.604 79.9212 107.021C80.6348 107.013 81.7085 107.123 82.4503 107.785C83.0165 108.29 83.2897 109.011 83.2627 109.927C83.2469 110.452 83.1415 110.99 82.9487 111.524C82.4451 112.921 81.3497 114.081 79.9436 114.705C77.6212 115.737 71.7881 117.628 67.791 112.93C66.5152 111.43 65.2223 109.786 63.8531 108.047C59.8895 103.008 55.791 97.7977 52.2593 96.4075C49.3082 95.2458 39.5215 90.2019 35.1287 73.4327C34.3408 75.6409 32.9926 80.759 35.0359 85.9181C37.8442 93.0085 43.8971 95.7363 46.3696 96.5794C49.5386 97.6609 56.7146 102.001 58.9429 107.132C60.1535 109.921 62.5793 113.059 65.2737 115.322C67.6145 117.287 71.2628 119.543 75.3428 119.126C75.5653 119.1 75.7661 119.27 75.7885 119.498C75.8109 119.727 75.6476 119.932 75.4238 119.954C75.0775 119.99 74.7313 120.008 74.3857 120.008Z" fill="#630B0C"/>
<path d="M78.5798 143.309C78.4797 143.309 78.3816 143.27 78.3059 143.2C77.2626 142.228 77.3593 140.072 77.3639 139.98C77.3653 139.954 77.3692 139.928 77.3751 139.902C77.4956 139.396 77.5417 138.584 77.3132 138.377C77.1875 138.264 76.8794 138.367 76.7524 138.416C76.416 138.546 76.1909 138.757 76.0645 139.058C75.7794 139.736 76.0618 140.728 76.1948 141.052C76.26 141.21 76.2231 141.393 76.1033 141.512C75.9829 141.632 75.8038 141.664 75.6511 141.592C75.2482 141.405 73.9283 140.664 73.8559 139.001C73.7861 137.385 74.8098 136.55 75.497 136.268C76.2764 134.313 74.5524 133.135 74.4767 133.085C74.2878 132.959 74.2351 132.701 74.3575 132.508C74.48 132.315 74.7321 132.261 74.921 132.386C75.7847 132.961 77.1566 134.621 76.1672 136.78C76.1171 136.889 76.023 136.971 75.9091 137.003C75.8584 137.019 74.6024 137.418 74.6696 138.964C74.6933 139.507 74.9019 139.914 75.156 140.211C75.1014 139.747 75.1139 139.211 75.316 138.729C75.5313 138.216 75.9177 137.848 76.4641 137.636C77.1928 137.353 77.622 137.544 77.853 137.753C78.51 138.349 78.2579 139.699 78.1756 140.06C78.1605 140.478 78.2059 141.41 78.5094 142.078C78.7444 141.504 79.0255 140.619 78.9241 139.845C78.8141 139.011 78.9702 138.049 79.5652 137.78C79.8549 137.65 80.3229 137.642 80.9055 138.353C81.1175 138.613 81.3551 138.803 81.5849 138.986C81.885 139.226 82.1905 139.471 82.4031 139.839C82.5045 139.434 82.492 138.983 82.1306 138.658C81.1906 137.811 80.8509 137.259 80.9944 136.809C81.0747 136.56 81.2873 136.398 81.5816 136.361C81.9252 136.276 82.2754 136.253 82.6269 136.29C81.8403 135.696 81.0365 135.871 80.1972 136.052C79.7239 136.155 79.2763 136.252 78.8339 136.21C78.0268 136.135 77.0756 135.011 77.0598 133.676C77.044 132.286 77.9873 129.839 84.4905 129.071C86.7998 128.798 88.6193 127.797 89.8977 126.095C92.9107 122.087 92.0128 115.471 92.0029 115.404C91.9838 115.27 92.0292 115.136 92.1247 115.043C92.2195 114.95 92.3531 114.91 92.4821 114.935C95.8624 115.597 98.5917 114.737 100.596 112.382C101.861 110.895 103.15 109.257 104.513 107.524C108.544 102.4 112.713 97.1009 116.449 95.6299C119.377 94.4769 129.251 89.3669 133.386 72.0162C133.426 71.8464 133.566 71.7204 133.736 71.7008C133.906 71.6799 134.069 71.7723 134.146 71.9286C134.286 72.2163 137.558 79.0635 134.719 86.2314C131.784 93.6433 125.468 96.4904 122.888 97.3705C121.501 97.8435 119.026 99.1185 116.623 100.898C114.628 102.377 111.998 104.718 110.802 107.47C108.436 112.921 101.633 120.007 94.615 120.008C94.2694 120.008 93.9231 119.991 93.5769 119.955C93.3531 119.932 93.1898 119.728 93.2122 119.499C93.2346 119.27 93.4347 119.1 93.6578 119.126C97.7386 119.542 101.386 117.288 103.727 115.322C106.421 113.059 108.847 109.921 110.058 107.132C112.286 102.001 119.462 97.6609 122.631 96.5794C125.103 95.7363 131.156 93.0085 133.965 85.9181C136.011 80.7502 134.662 75.6355 133.873 73.4307C129.479 90.1998 119.692 95.2458 116.741 96.4082C113.21 97.7984 109.111 103.008 105.148 108.047C103.778 109.786 102.485 111.43 101.21 112.93C99.1427 115.36 96.2686 116.363 92.8719 115.848C93.0338 117.599 93.2655 122.981 90.5435 126.604C89.1255 128.49 87.1204 129.599 84.584 129.899C78.4968 130.617 77.8636 132.773 77.8741 133.666C77.8853 134.602 78.5607 135.348 78.9076 135.38C79.2282 135.41 79.6166 135.325 80.0287 135.236C81.1682 134.99 82.729 134.652 84.0653 136.677C84.1575 136.817 84.1581 136.999 84.0679 137.139C83.9784 137.28 83.8145 137.351 83.6532 137.32L82.8336 137.164C82.7862 137.155 82.7395 137.147 82.6915 137.14L82.6381 137.132C82.3735 137.092 82.1102 137.1 81.8515 137.154C81.9482 137.305 82.1681 137.581 82.6684 138.032C83.7809 139.034 83.1108 140.617 82.6006 141.314C82.4953 141.459 82.311 141.517 82.1438 141.459C81.9766 141.4 81.8653 141.239 81.8679 141.059C81.8791 140.28 81.5796 140.04 81.0833 139.643C80.8324 139.442 80.5487 139.215 80.2815 138.889C80.053 138.61 79.922 138.558 79.8871 138.549C79.7871 138.635 79.6482 139.105 79.7305 139.734C79.9339 141.28 78.9748 143.024 78.934 143.098C78.8727 143.208 78.7661 143.284 78.6443 143.303C78.6226 143.307 78.6015 143.309 78.5798 143.309Z" fill="#630B0C"/>
<path d="M93.3027 43.5918C93.1098 43.5918 92.9261 43.4773 92.8432 43.2852C92.7313 43.0251 92.8458 42.7218 93.0993 42.6073L107.391 36.1483L107.265 37.0634C106.993 39.0358 106.784 41.0015 106.642 42.9045C106.621 43.1875 106.38 43.4011 106.104 43.3782C105.827 43.3566 105.62 43.11 105.641 42.827C105.762 41.1955 105.933 39.5203 106.148 37.8336L93.5054 43.548C93.4396 43.5777 93.3705 43.5918 93.3027 43.5918Z" fill="#630B0C"/>
<path d="M116.462 89.1837C116.235 89.1837 116.03 89.0253 115.974 88.7894C115.91 88.5132 116.076 88.2362 116.346 88.1695C117.836 87.8043 119.257 87.5334 120.586 87.3615C119.657 86.6263 118.226 85.3682 116.597 83.4908C116.413 83.2786 116.431 82.9538 116.639 82.7651C116.846 82.5764 117.163 82.5959 117.348 82.8082C120.036 85.906 122.202 87.28 122.223 87.2935L123.539 88.1183L122.002 88.2443C120.355 88.3791 118.53 88.6904 116.579 89.1695C116.54 89.1789 116.501 89.1837 116.462 89.1837Z" fill="#630B0C"/>
<path d="M71.3609 112.787L71.1647 112.099C70.6914 110.435 70.1872 108.784 69.6658 107.191C69.5776 106.923 69.7198 106.631 69.9824 106.541C70.2451 106.45 70.5301 106.596 70.6183 106.865C71.0726 108.252 71.5136 109.683 71.9329 111.128C72.8157 110.509 74.6708 109.224 77.1867 107.573C77.4204 107.42 77.7311 107.489 77.8806 107.729C78.03 107.967 77.9622 108.285 77.7292 108.439C74.1817 110.767 71.9573 112.36 71.9356 112.375" fill="#630B0C"/>
<path d="M50.2524 73.6827C50.1333 73.6827 50.0135 73.6396 49.9173 73.5513C44.6109 68.6812 40.6454 67.3261 40.6059 67.3133L39.3564 66.8968L51.8718 61.2411C52.1252 61.1258 52.4215 61.2438 52.5334 61.5032C52.6459 61.7633 52.5307 62.0666 52.2773 62.1811L42.0462 66.8052C43.636 67.5458 46.7628 69.2749 50.5875 72.7864C50.7942 72.9758 50.8113 73.3006 50.6263 73.5122C50.5269 73.6254 50.39 73.6827 50.2524 73.6827Z" fill="#630B0C"/>
<path d="M67.4828 55.2612C67.29 55.2612 67.1056 55.1466 67.0234 54.9546C66.9115 54.6951 67.026 54.3919 67.2801 54.2766L73.9202 51.2759C74.1737 51.1607 74.4706 51.2786 74.5825 51.5387C74.6944 51.7982 74.5798 52.1014 74.3257 52.216L67.6856 55.2174C67.6198 55.247 67.5506 55.2612 67.4828 55.2612Z" fill="#630B0C"/>
<path d="M42.6301 97.8381C42.5992 97.8381 42.5689 97.8341 42.5379 97.8274C38.1445 96.7869 32.4036 94.1939 29.9976 87.7537C28.5599 83.9039 29.0055 80.5474 29.0253 80.4065C29.047 80.2502 29.1523 80.1208 29.2985 80.0703C29.444 80.0197 29.6052 80.0581 29.7145 80.1687L34.7425 85.2523C34.9025 85.414 34.9044 85.6775 34.7465 85.842C34.5878 86.005 34.3304 86.0071 34.1705 85.8453L29.7711 81.3978C29.7329 82.6168 29.8205 84.9646 30.7711 87.4889C32.6057 92.3663 36.6265 95.5713 42.7216 97.0147C42.9402 97.0672 43.0771 97.291 43.0264 97.5154C42.9829 97.7081 42.8151 97.8381 42.6301 97.8381Z" fill="#630B0C"/>
<path d="M41.7908 101.668C37.795 101.668 34.7301 100.582 32.6729 98.4372C29.9035 95.5483 30.0121 91.8252 30.0174 91.6682C30.0233 91.5314 30.0931 91.4068 30.2057 91.3333C30.3176 91.2599 30.4584 91.2471 30.5815 91.2996C32.0291 91.9169 33.8032 92.3583 33.8203 92.363C34.0389 92.4169 34.1738 92.642 34.1211 92.8657C34.0678 93.0894 33.848 93.2275 33.6294 93.173C33.5642 93.1568 32.2022 92.8178 30.8554 92.305C30.9469 93.4263 31.3669 95.8907 33.2627 97.8617C35.2363 99.9143 38.2585 100.91 42.2477 100.829C42.4715 100.827 42.6585 101.007 42.6631 101.237C42.6677 101.468 42.4893 101.658 42.2642 101.662C42.1055 101.666 41.9469 101.668 41.7908 101.668Z" fill="#630B0C"/>
<path d="M44.6489 106.229H44.5844C41.3364 106.22 38.831 105.561 37.1366 104.27C35.7311 103.199 34.9221 101.706 34.7312 99.8335C34.7081 99.6044 34.8707 99.3995 35.0939 99.3759C35.319 99.3517 35.5178 99.5181 35.5415 99.7472C35.7074 101.378 36.4078 102.675 37.623 103.602C41.3496 106.441 48.7073 105.057 48.781 105.043C49.0009 105 49.2148 105.149 49.2563 105.375C49.2984 105.602 49.1529 105.819 48.9324 105.863C48.8541 105.877 47.0095 106.229 44.6489 106.229Z" fill="#630B0C"/>
<path d="M44.8677 109.906C42.6282 109.906 40.8666 109.459 39.6106 108.569C38.2776 107.625 37.5502 106.198 37.4488 104.328C37.437 104.099 37.6088 103.902 37.8333 103.889C38.0544 103.878 38.25 104.053 38.2625 104.282C38.35 105.904 38.9418 107.082 40.0734 107.883C43.7861 110.514 51.891 107.95 51.9726 107.924C52.1865 107.855 52.4156 107.976 52.4828 108.196C52.5506 108.416 52.4314 108.65 52.2168 108.719C52.1306 108.747 50.0695 109.405 47.489 109.73C46.5536 109.848 45.6794 109.906 44.8677 109.906Z" fill="#630B0C"/>
<path d="M48.182 113.618C47.1689 113.618 46.24 113.466 45.402 113.163C43.6688 112.535 42.3798 111.263 41.5715 109.382C41.4813 109.171 41.5747 108.925 41.7808 108.832C41.9862 108.74 42.2265 108.835 42.3173 109.046C43.0309 110.707 44.1592 111.828 45.6713 112.377C49.5176 113.771 54.6589 111.101 54.7102 111.074C54.9103 110.969 55.1552 111.049 55.2586 111.254C55.3612 111.458 55.2829 111.71 55.0835 111.816C55.0275 111.844 53.6997 112.541 51.8486 113.061C50.5288 113.433 49.3037 113.618 48.182 113.618Z" fill="#630B0C"/>
<path d="M51.0864 116.457C50.2228 116.457 49.3696 116.332 48.5942 116.017C47.3158 115.497 46.41 114.522 45.9011 113.119C45.8228 112.904 45.9301 112.665 46.1407 112.584C46.352 112.504 46.5864 112.614 46.6641 112.83C47.0893 114.001 47.8404 114.813 48.8957 115.243C52.1344 116.561 57.219 114.029 57.2697 114.003C57.4718 113.902 57.7154 113.986 57.8148 114.193C57.9142 114.399 57.8312 114.649 57.6298 114.751C57.4567 114.838 54.2041 116.457 51.0864 116.457Z" fill="#630B0C"/>
<path d="M54.7734 119.576C53.9269 119.576 53.0738 119.446 52.2983 119.105C51.0554 118.56 50.1865 117.549 49.7158 116.102C49.6447 115.884 49.7599 115.648 49.9732 115.576C50.1865 115.503 50.4169 115.62 50.488 115.839C50.8823 117.049 51.5992 117.89 52.6176 118.339C55.4054 119.566 59.6013 117.589 59.6435 117.569C59.8469 117.471 60.0898 117.562 60.1846 117.77C60.28 117.979 60.1925 118.227 59.9891 118.324C59.8495 118.39 57.3395 119.576 54.7734 119.576Z" fill="#630B0C"/>
<path d="M58.5403 122.157C58.198 122.157 57.855 122.129 57.5127 122.066C55.9808 121.785 54.7321 120.859 53.8026 119.313C53.6847 119.116 53.7446 118.86 53.9362 118.739C54.1278 118.618 54.3786 118.68 54.4964 118.876C55.2989 120.211 56.3627 121.008 57.6568 121.246C60.7705 121.816 64.2627 119.049 64.2976 119.021C64.4747 118.878 64.7301 118.911 64.869 119.092C65.0079 119.273 64.977 119.535 64.7999 119.677C64.6604 119.789 61.6684 122.157 58.5403 122.157Z" fill="#630B0C"/>
<path d="M62.7346 124.87C62.6609 124.87 62.5872 124.868 62.5121 124.865C60.7565 124.788 59.1345 123.814 57.6922 121.968C57.5519 121.788 57.5802 121.526 57.7554 121.382C57.9318 121.238 58.1872 121.268 58.3281 121.447C59.617 123.097 61.0363 123.967 62.547 124.032C64.9695 124.134 66.8496 122.142 66.8687 122.122C67.0234 121.955 67.2808 121.948 67.444 122.106C67.6073 122.264 67.6139 122.529 67.4592 122.696C67.3749 122.787 65.4112 124.87 62.7346 124.87Z" fill="#630B0C"/>
<path d="M65.5542 127.075C65.2804 127.075 65.0046 127.048 64.7314 126.986C63.5925 126.732 62.6953 125.939 62.066 124.633C61.9666 124.426 62.0495 124.176 62.2509 124.074C62.453 123.973 62.6966 124.058 62.7967 124.264C63.3108 125.331 64.0191 125.973 64.9032 126.172C66.9577 126.634 69.3743 124.655 69.398 124.634C69.5731 124.49 69.8291 124.518 69.9707 124.696C70.1122 124.874 70.0859 125.137 69.9114 125.282C69.8133 125.364 67.7279 127.075 65.5542 127.075Z" fill="#630B0C"/>
<path d="M126.371 97.8381C126.186 97.8381 126.018 97.7081 125.974 97.5154C125.924 97.291 126.061 97.0672 126.279 97.0147C132.374 95.5713 136.395 92.3663 138.23 87.4889C139.18 84.9646 139.268 82.6168 139.23 81.3978L134.83 85.8453C134.67 86.0071 134.412 86.005 134.254 85.842C134.096 85.6775 134.098 85.414 134.258 85.2523L139.286 80.1687C139.396 80.0581 139.556 80.0197 139.702 80.0703C139.848 80.1208 139.954 80.2502 139.976 80.4065C139.995 80.5474 140.441 83.9039 139.003 87.7537C136.597 94.1939 130.856 96.7869 126.463 97.8274C126.432 97.8341 126.402 97.8381 126.371 97.8381Z" fill="#630B0C"/>
<path d="M127.21 101.668C127.054 101.668 126.896 101.666 126.737 101.662C126.512 101.658 126.333 101.468 126.338 101.237C126.343 101.007 126.526 100.825 126.753 100.829C130.746 100.912 133.773 99.911 135.747 97.8537C137.642 95.8765 138.058 93.4223 138.147 92.305C136.799 92.8178 135.437 93.1568 135.372 93.173C135.153 93.2282 134.933 93.0894 134.881 92.8657C134.827 92.642 134.962 92.4169 135.18 92.363C135.198 92.3583 136.974 91.9162 138.42 91.2996C138.543 91.2471 138.683 91.2599 138.795 91.3333C138.908 91.4068 138.978 91.5314 138.983 91.6682C138.989 91.8252 139.098 95.5483 136.327 98.4372C134.271 100.582 131.205 101.668 127.21 101.668Z" fill="#630B0C"/>
<path d="M124.351 106.229C121.991 106.229 120.147 105.877 120.068 105.863C119.848 105.819 119.702 105.602 119.745 105.375C119.786 105.15 120.001 105.001 120.22 105.043C120.294 105.058 127.657 106.439 131.379 103.601C132.594 102.674 133.294 101.378 133.459 99.7472C133.483 99.5181 133.684 99.3523 133.907 99.3759C134.13 99.3995 134.293 99.6043 134.27 99.8335C134.079 101.706 133.27 103.199 131.864 104.27C130.17 105.561 127.664 106.22 124.416 106.229" fill="#630B0C"/>
<path d="M124.133 109.906C123.321 109.906 122.447 109.848 121.512 109.73C118.931 109.405 116.87 108.747 116.784 108.719C116.569 108.65 116.45 108.416 116.518 108.196C116.585 107.976 116.814 107.855 117.028 107.924C117.11 107.95 125.215 110.514 128.927 107.883C130.059 107.082 130.651 105.904 130.739 104.282C130.751 104.053 130.942 103.878 131.168 103.889C131.392 103.902 131.564 104.099 131.551 104.328C131.451 106.198 130.723 107.625 129.39 108.569C128.134 109.459 126.372 109.906 124.133 109.906Z" fill="#630B0C"/>
<path d="M120.819 113.618C119.697 113.618 118.472 113.433 117.152 113.061C115.3 112.541 113.973 111.844 113.917 111.816C113.718 111.71 113.639 111.458 113.742 111.254C113.845 111.049 114.09 110.969 114.291 111.074C114.342 111.101 119.483 113.772 123.329 112.376C124.842 111.828 125.97 110.707 126.683 109.046C126.774 108.835 127.015 108.74 127.22 108.832C127.426 108.925 127.52 109.171 127.429 109.382C126.621 111.263 125.332 112.535 123.599 113.163C122.761 113.466 121.832 113.618 120.819 113.618Z" fill="#630B0C"/>
<path d="M117.914 116.457C114.796 116.457 111.544 114.838 111.371 114.751C111.17 114.649 111.087 114.399 111.186 114.193C111.285 113.987 111.53 113.902 111.731 114.003C111.782 114.029 116.872 116.56 120.107 115.242C121.162 114.812 121.912 114.001 122.336 112.83C122.414 112.614 122.649 112.504 122.86 112.584C123.071 112.665 123.178 112.904 123.1 113.119C122.591 114.522 121.685 115.497 120.406 116.017C119.631 116.332 118.777 116.457 117.914 116.457Z" fill="#630B0C"/>
<path d="M114.227 119.576C111.661 119.576 109.151 118.39 109.012 118.324C108.808 118.227 108.721 117.979 108.816 117.77C108.911 117.562 109.154 117.472 109.357 117.569C109.399 117.589 113.594 119.566 116.383 118.339C117.401 117.89 118.118 117.049 118.513 115.839C118.584 115.62 118.814 115.503 119.027 115.576C119.241 115.648 119.356 115.884 119.285 116.102C118.814 117.549 117.945 118.56 116.702 119.105C115.927 119.446 115.074 119.576 114.227 119.576Z" fill="#630B0C"/>
<path d="M110.461 122.157C107.332 122.157 104.34 119.789 104.201 119.677C104.024 119.535 103.993 119.273 104.132 119.092C104.27 118.911 104.526 118.878 104.703 119.02C104.738 119.049 108.241 121.817 111.347 121.246C112.64 121.008 113.702 120.21 114.504 118.876C114.622 118.68 114.873 118.619 115.065 118.739C115.256 118.86 115.316 119.116 115.198 119.313C114.268 120.859 113.02 121.785 111.488 122.066C111.146 122.129 110.802 122.157 110.461 122.157Z" fill="#630B0C"/>
<path d="M106.265 124.87C103.589 124.87 101.626 122.787 101.541 122.696C101.387 122.529 101.393 122.264 101.557 122.106C101.72 121.948 101.977 121.955 102.132 122.122C102.159 122.15 104.051 124.145 106.46 124.031C107.968 123.964 109.386 123.095 110.673 121.447C110.813 121.267 111.07 121.238 111.245 121.382C111.42 121.526 111.449 121.788 111.308 121.968C109.866 123.814 108.244 124.788 106.489 124.865C106.413 124.868 106.339 124.87 106.265 124.87Z" fill="#630B0C"/>
<path d="M103.446 127.075C101.272 127.075 99.1873 125.364 99.0892 125.282C98.9148 125.137 98.8885 124.874 99.03 124.696C99.1715 124.517 99.4276 124.49 99.6027 124.634C99.6264 124.655 102.044 126.634 104.097 126.172C104.981 125.973 105.69 125.331 106.204 124.264C106.303 124.058 106.548 123.973 106.749 124.074C106.951 124.176 107.034 124.426 106.935 124.633C106.305 125.939 105.408 126.732 104.269 126.986C103.996 127.048 103.72 127.075 103.446 127.075Z" fill="#630B0C"/>
<path d="M69.8528 137.251C69.203 137.251 68.5454 137.072 67.8871 136.716C67.6883 136.608 67.6119 136.356 67.7173 136.153C67.8219 135.949 68.0681 135.871 68.2676 135.978C69.1754 136.47 70.0338 136.548 70.8915 136.218C73.2916 135.294 74.7399 131.478 74.7544 131.439C74.834 131.224 75.069 131.116 75.279 131.199C75.4897 131.281 75.595 131.521 75.5147 131.736C75.4515 131.908 73.9236 135.939 71.1805 136.997C70.7428 137.166 70.2997 137.251 69.8528 137.251Z" fill="#630B0C"/>
<path d="M66.7637 136.951C66.6965 136.951 66.63 136.949 66.5636 136.945C65.5722 136.883 64.7394 136.36 64.0891 135.394C63.9613 135.204 64.0081 134.945 64.1937 134.814C64.3787 134.683 64.6315 134.732 64.7599 134.921C65.268 135.676 65.8737 136.066 66.6129 136.113C68.7925 136.249 71.3184 133.38 71.3434 133.351C71.4928 133.178 71.7502 133.163 71.9181 133.317C72.0859 133.469 72.1011 133.732 71.9516 133.904C71.841 134.032 69.2764 136.951 66.7637 136.951Z" fill="#630B0C"/>
<path d="M63.7319 135.595C63.3771 135.595 63.0328 135.557 62.7024 135.474C61.5787 135.191 60.7473 134.424 60.2305 133.198C60.1416 132.986 60.2371 132.741 60.4438 132.65C60.6505 132.559 60.8895 132.657 60.979 132.868C61.3944 133.856 62.0217 134.444 62.8972 134.664C65.9892 135.444 70.9263 131.39 70.9757 131.349C71.1508 131.204 71.4069 131.232 71.5484 131.41C71.69 131.589 71.663 131.852 71.4885 131.996C71.2937 132.158 67.1057 135.595 63.7319 135.595Z" fill="#630B0C"/>
<path d="M61.3801 133.548C60.4533 133.548 59.6173 133.383 58.9649 132.977C58.0202 132.387 57.541 131.377 57.541 129.973C57.541 129.743 57.7234 129.556 57.9478 129.556C58.173 129.556 58.3553 129.743 58.3553 129.973C58.3553 131.081 58.693 131.831 59.3882 132.265C62.3445 134.108 70.3835 129.9 70.4645 129.858C70.664 129.752 70.9095 129.832 71.0129 130.037C71.1162 130.241 71.0379 130.492 70.8377 130.598C70.5586 130.746 65.2028 133.548 61.3801 133.548Z" fill="#630B0C"/>
<path d="M61.012 130.86C59.1655 130.86 57.4184 130.522 56.1874 129.56C54.8662 128.527 54.2889 126.91 54.4699 124.753C54.4818 124.618 54.5562 124.496 54.6707 124.428C54.7859 124.36 54.9255 124.353 55.0459 124.409C55.1276 124.448 63.2739 128.222 67.4619 125.806C67.6581 125.694 67.9062 125.765 68.0168 125.965C68.1274 126.166 68.0576 126.42 67.8621 126.533C65.9353 127.644 63.1264 127.747 59.5137 126.84C57.635 126.368 56.0478 125.745 55.252 125.408C55.2283 126.984 55.6983 128.128 56.6811 128.897C60.3603 131.773 69.8343 128.258 69.9291 128.222C70.1404 128.143 70.3741 128.253 70.4518 128.469C70.5295 128.685 70.4215 128.925 70.2102 129.005C69.9285 129.11 65.2151 130.86 61.012 130.86Z" fill="#630B0C"/>
<path d="M98.9693 128.127C98.6474 128.127 98.3163 128.091 97.9826 128.005C96.6008 127.653 95.4936 126.558 94.6898 124.748C94.597 124.539 94.6872 124.292 94.8926 124.196C95.0973 124.101 95.3382 124.194 95.4311 124.403C96.1255 125.967 97.0485 126.907 98.1741 127.195C100.032 127.67 101.893 126.236 101.911 126.221C102.09 126.082 102.346 126.116 102.483 126.298C102.619 126.481 102.586 126.742 102.408 126.883C102.333 126.941 100.805 128.127 98.9693 128.127Z" fill="#630B0C"/>
<path d="M93.9106 127.261C93.7256 127.261 93.542 127.24 93.3583 127.197C91.7297 126.82 90.8272 124.878 90.7897 124.795C90.6949 124.586 90.7824 124.338 90.9865 124.241C91.1899 124.144 91.4322 124.234 91.5276 124.442C91.5408 124.471 92.307 126.101 93.5407 126.385C94.1463 126.524 94.7947 126.308 95.4661 125.742C95.6399 125.595 95.8967 125.62 96.0395 125.798C96.1824 125.976 96.1573 126.239 95.9842 126.385C95.293 126.968 94.5979 127.261 93.9106 127.261Z" fill="#630B0C"/>
<path d="M91.6514 99.7957C91.0306 101.129 89.9049 102.045 88.6219 102.431C88.1078 101.168 88.0959 99.6953 88.7167 98.3624C89.3381 97.0302 90.4631 96.1137 91.7461 95.7269C92.2603 96.9911 92.2728 98.4628 91.6514 99.7957Z" fill="#630B0C"/>
<path d="M91.2469 105.679C89.9448 105.043 89.0502 103.891 88.6724 102.577C89.9073 102.052 91.345 102.039 92.6471 102.675C93.9492 103.311 94.8445 104.462 95.2217 105.776C93.9874 106.303 92.5497 106.315 91.2469 105.679Z" fill="#630B0C"/>
<path d="M96.3033 98.2182C95.7016 99.5605 94.5898 100.494 93.3127 100.9C92.7801 99.6441 92.7459 98.1724 93.3476 96.83C93.9492 95.4877 95.0604 94.5544 96.3382 94.1487C96.8707 95.4041 96.9043 96.8759 96.3033 98.2182Z" fill="#630B0C"/>
<path d="M95.7044 104.331C94.4504 103.602 93.6374 102.387 93.353 101.05C94.6209 100.615 96.056 100.707 97.3106 101.437C98.5653 102.166 99.3777 103.381 99.662 104.718C98.3935 105.153 96.9591 105.061 95.7044 104.331Z" fill="#630B0C"/>
<path d="M100.53 96.8395C100.015 98.2189 98.9649 99.2243 97.7161 99.7149C97.1052 98.4972 96.9775 97.0308 97.4923 95.6514C98.0071 94.2714 99.0571 93.2659 100.306 92.776C100.917 93.9937 101.045 95.4594 100.53 96.8395Z" fill="#630B0C"/>
<path d="M100.306 102.992C99.0104 102.342 98.1283 101.179 97.7656 99.8618C99.0058 99.349 100.444 99.353 101.738 100.004C103.033 100.655 103.916 101.817 104.279 103.135C103.039 103.647 101.601 103.643 100.306 102.992Z" fill="#630B0C"/>
<path d="M104.211 94.2774C104.179 95.7539 103.521 97.0625 102.506 97.954C101.53 97.0174 100.928 95.6804 100.961 94.204C100.992 92.7275 101.651 91.4189 102.666 90.528C103.642 91.464 104.243 92.801 104.211 94.2774Z" fill="#630B0C"/>
<path d="M105.855 100.406C104.437 100.132 103.284 99.2533 102.591 98.0821C103.653 97.2499 105.04 96.861 106.458 97.1353C107.875 97.4089 109.029 98.2883 109.721 99.4595C108.659 100.291 107.272 100.68 105.855 100.406Z" fill="#630B0C"/>
<path d="M106.933 90.6372C107.28 92.0705 106.979 93.5099 106.227 94.642C105.046 93.9998 104.123 92.8704 103.777 91.4371C103.43 90.0038 103.731 88.5644 104.483 87.4316C105.664 88.0745 106.586 89.2032 106.933 90.6372Z" fill="#630B0C"/>
<path d="M110.27 95.4453C108.869 95.7997 107.464 95.4917 106.357 94.7222C106.984 93.5133 108.088 92.5692 109.488 92.2141C110.889 91.8589 112.295 92.1669 113.401 92.9371C112.773 94.146 111.67 95.0901 110.27 95.4453Z" fill="#630B0C"/>
<path d="M108.484 86.2402C109.108 87.5718 109.099 89.0435 108.586 90.3083C107.303 89.9249 106.176 89.0112 105.552 87.6796C104.928 86.348 104.938 84.8763 105.449 83.6115C106.733 83.9949 107.86 84.9086 108.484 86.2402Z" fill="#630B0C"/>
<path d="M112.698 90.4546C111.369 91.0294 109.933 90.9499 108.723 90.3663C109.158 89.0718 110.104 87.9633 111.433 87.3885C112.762 86.8137 114.197 86.8932 115.407 87.4768C114.972 88.7713 114.027 89.8804 112.698 90.4546Z" fill="#630B0C"/>
<path d="M109.299 81.6862C110.121 82.8999 110.34 84.3547 110.03 85.6863C108.704 85.5165 107.449 84.7968 106.627 83.5832C105.805 82.3695 105.587 80.9146 105.895 79.5831C107.223 79.7529 108.477 80.4726 109.299 81.6862Z" fill="#630B0C"/>
<path d="M114.063 84.8635C112.901 85.7388 111.487 86.0037 110.177 85.7247C110.306 84.3621 110.973 83.0582 112.135 82.1829C113.297 81.3075 114.712 81.0427 116.021 81.321C115.892 82.6842 115.225 83.9875 114.063 84.8635Z" fill="#630B0C"/>
<path d="M109.17 76.5251C110.221 77.5365 110.731 78.9126 110.7 80.2812C109.367 80.3978 107.993 79.9611 106.943 78.9496C105.892 77.9382 105.381 76.5621 105.413 75.1935C106.745 75.0769 108.119 75.5129 109.17 76.5251Z" fill="#630B0C"/>
<path d="M114.592 78.9247C113.552 79.9483 112.184 80.4005 110.85 80.2987C110.804 78.9308 111.298 77.5487 112.339 76.5251C113.379 75.5015 114.747 75.05 116.081 75.1511C116.127 76.519 115.632 77.9011 114.592 78.9247Z" fill="#630B0C"/>
<path d="M108.475 71.1658C109.646 72.0284 110.327 73.3249 110.47 74.6854C109.164 74.9792 107.747 74.7306 106.575 73.868C105.404 73.0055 104.724 71.7089 104.58 70.3484C105.886 70.0546 107.303 70.3033 108.475 71.1658Z" fill="#630B0C"/>
<path d="M114.104 72.7143C113.236 73.8943 111.955 74.5621 110.622 74.6787C110.364 73.3356 110.639 71.8909 111.507 70.7116C112.375 69.5317 113.657 68.8639 114.989 68.7473C115.246 70.0903 114.972 71.5351 114.104 72.7143Z" fill="#630B0C"/>
<path d="M107.722 66.0781C108.856 66.9919 109.482 68.3167 109.567 69.6833C108.25 69.9185 106.844 69.6071 105.711 68.694C104.577 67.7803 103.951 66.4555 103.866 65.0895C105.183 64.8537 106.588 65.165 107.722 66.0781Z" fill="#630B0C"/>
<path d="M113.186 67.6846C112.327 68.8706 111.05 69.5485 109.718 69.6752C109.451 68.3335 109.716 66.8867 110.575 65.7007C111.436 64.5154 112.712 63.8375 114.043 63.7108C114.311 65.0525 114.047 66.4993 113.186 67.6846Z" fill="#630B0C"/>
<path d="M106.788 60.3947C107.922 61.3078 108.548 62.6333 108.634 63.9992C107.316 64.2344 105.911 63.9238 104.777 63.01C103.643 62.0969 103.017 60.7714 102.931 59.4055C104.249 59.1696 105.654 59.4809 106.788 60.3947Z" fill="#630B0C"/>
<path d="M112.253 62.0012C111.393 63.1865 110.117 63.8644 108.785 63.9911C108.518 62.6495 108.782 61.2027 109.642 60.0173C110.502 58.8313 111.778 58.1534 113.11 58.0267C113.377 59.3684 113.113 60.8152 112.253 62.0012Z" fill="#630B0C"/>
<path d="M105.978 54.4027C107.113 55.3158 107.738 56.6413 107.824 58.0072C106.506 58.243 105.101 57.9317 103.967 57.018C102.834 56.1049 102.208 54.78 102.122 53.4134C103.439 53.1783 104.845 53.4896 105.978 54.4027Z" fill="#630B0C"/>
<path d="M111.323 55.805C110.533 57.0402 109.298 57.7929 107.975 57.9991C107.632 56.6763 107.813 55.216 108.603 53.9808C109.395 52.7456 110.63 51.9922 111.952 51.786C112.296 53.1095 112.114 54.5691 111.323 55.805Z" fill="#630B0C"/>
<path d="M85.4679 104.85C85.3487 104.85 85.2309 104.797 85.1499 104.694C85.0091 104.515 85.0367 104.252 85.2125 104.108C87.3953 102.311 88.6145 101.774 99.0036 99.0572C102.479 98.1481 107.07 95.3981 109.211 87.4552C110.707 81.9019 110.459 75.8984 109.727 72.1321C108.254 64.5552 106.748 52.5906 106.733 52.4707C106.705 52.2429 106.862 52.034 107.085 52.0044C107.309 51.9741 107.513 52.1365 107.541 52.3649C107.556 52.4842 109.059 64.4204 110.526 71.9697C111.276 75.8296 111.53 81.9827 109.996 87.6769C108.219 94.2687 104.488 98.4837 99.2057 99.8651C88.9746 102.54 87.789 103.057 85.7226 104.758C85.6469 104.819 85.5568 104.85 85.4679 104.85Z" fill="#630B0C"/>
<path d="M108.925 49.1243C109.082 50.9579 108.439 52.6702 107.3 53.9155C105.967 52.8912 105.045 51.3184 104.889 49.4848C104.732 47.6512 105.374 45.9389 106.513 44.6936C107.846 45.7179 108.769 47.2907 108.925 49.1243Z" fill="#630B0C"/>
<path d="M76.087 99.7957C76.7084 101.129 77.8334 102.045 79.1171 102.431C79.6312 101.168 79.643 99.6953 79.0223 98.3624C78.4008 97.0302 77.2758 96.1137 75.9928 95.7269C75.4787 96.9911 75.4662 98.4628 76.087 99.7957Z" fill="#630B0C"/>
<path d="M76.4918 105.679C77.7939 105.043 78.6892 103.891 79.0664 102.577C77.8314 102.052 76.3937 102.039 75.0916 102.675C73.7896 103.311 72.8943 104.462 72.5171 105.776C73.7514 106.303 75.1897 106.315 76.4918 105.679Z" fill="#630B0C"/>
<path d="M71.4355 98.2182C72.0371 99.5605 73.149 100.494 74.4261 100.9C74.9586 99.6441 74.9928 98.1724 74.3912 96.83C73.7895 95.4877 72.6776 94.5544 71.4006 94.1487C70.868 95.4041 70.8338 96.8759 71.4355 98.2182Z" fill="#630B0C"/>
<path d="M72.0343 104.331C73.2883 103.602 74.1013 102.387 74.3857 101.05C73.1178 100.615 71.6821 100.707 70.4281 101.437C69.174 102.166 68.361 103.381 68.0767 104.718C69.3445 105.153 70.7796 105.061 72.0343 104.331Z" fill="#630B0C"/>
<path d="M67.2093 96.8395C67.7241 98.2189 68.7741 99.2243 70.0228 99.7149C70.6344 98.4972 70.7614 97.0308 70.2466 95.6514C69.7312 94.2714 68.6819 93.2659 67.4331 92.776C66.8216 93.9937 66.6945 95.4594 67.2093 96.8395Z" fill="#630B0C"/>
<path d="M67.4329 102.992C68.7277 102.342 69.6105 101.179 69.9732 99.8618C68.733 99.349 67.2953 99.353 66.0005 100.004C64.705 100.655 63.8228 101.817 63.4595 103.135C64.7003 103.647 66.138 103.643 67.4329 102.992Z" fill="#630B0C"/>
<path d="M63.5271 94.2774C63.5587 95.7539 64.2176 97.0625 65.2327 97.954C66.2083 97.0174 66.8099 95.6804 66.7777 94.204C66.7454 92.7275 66.0871 91.4189 65.0721 90.528C64.0965 91.464 63.4955 92.801 63.5271 94.2774Z" fill="#630B0C"/>
<path d="M61.8834 100.406C63.3013 100.132 64.4546 99.2533 65.1472 98.0821C64.0847 97.2499 62.6983 96.861 61.2804 97.1353C59.8631 97.4089 58.7098 98.2883 58.0166 99.4595C59.0791 100.291 60.4654 100.68 61.8834 100.406Z" fill="#630B0C"/>
<path d="M60.806 90.6372C60.4591 92.0705 60.7599 93.5099 61.5117 94.642C62.6926 93.9998 63.6149 92.8704 63.9618 91.4371C64.3087 90.0038 64.0079 88.5644 63.2561 87.4316C62.0752 88.0745 61.1529 89.2032 60.806 90.6372Z" fill="#630B0C"/>
<path d="M57.4692 95.4453C58.8694 95.7997 60.2755 95.4917 61.3814 94.7222C60.754 93.5133 59.6514 92.5692 58.2506 92.2141C56.8504 91.8589 55.4443 92.1669 54.3384 92.9371C54.9657 94.146 56.069 95.0901 57.4692 95.4453Z" fill="#630B0C"/>
<path d="M59.2545 86.2402C58.6311 87.5718 58.6403 89.0435 59.1518 90.3083C60.4355 89.9249 61.5631 89.0112 62.1865 87.6796C62.8106 86.348 62.8014 84.8763 62.2892 83.6115C61.0055 83.9949 59.8786 84.9086 59.2545 86.2402Z" fill="#630B0C"/>
<path d="M55.0406 90.4546C56.3696 91.0294 57.8054 90.9499 59.0153 90.3663C58.5802 89.0718 57.6349 87.9633 56.3058 87.3885C54.9767 86.8137 53.541 86.8932 52.3311 87.4768C52.7662 88.7713 53.7115 89.8804 55.0406 90.4546Z" fill="#630B0C"/>
<path d="M58.4396 81.6862C57.6181 82.8999 57.3988 84.3547 57.7082 85.6863C59.0353 85.5165 60.29 84.7968 61.1116 83.5832C61.9338 82.3695 62.1523 80.9146 61.8436 79.5831C60.5165 79.7529 59.2618 80.4726 58.4396 81.6862Z" fill="#630B0C"/>
<path d="M53.6755 84.8635C54.8374 85.7388 56.2521 86.0037 57.5614 85.7247C57.4324 84.3621 56.7649 83.0582 55.603 82.1829C54.4411 81.3075 53.0271 81.0427 51.7178 81.321C51.8468 82.6842 52.5136 83.9875 53.6755 84.8635Z" fill="#630B0C"/>
<path d="M58.5688 76.5251C57.5176 77.5365 57.0074 78.9126 57.039 80.2812C58.3714 80.3978 59.7445 79.9611 60.7958 78.9496C61.8471 77.9382 62.3566 76.5621 62.3257 75.1935C60.9926 75.0769 59.6195 75.5129 58.5688 76.5251Z" fill="#630B0C"/>
<path d="M53.1461 78.9247C54.1862 79.9483 55.5548 80.4005 56.8885 80.2987C56.9346 78.9308 56.4395 77.5487 55.4001 76.5251C54.36 75.5015 52.9914 75.05 51.6577 75.1511C51.6117 76.519 52.106 77.9011 53.1461 78.9247Z" fill="#630B0C"/>
<path d="M59.264 71.1658C58.0929 72.0284 57.4116 73.3249 57.2681 74.6854C58.5741 74.9792 59.9914 74.7306 61.1625 73.868C62.3336 73.0055 63.0149 71.7089 63.1584 70.3484C61.8517 70.0546 60.4351 70.3033 59.264 71.1658Z" fill="#630B0C"/>
<path d="M53.6344 72.7143C54.5027 73.8943 55.7837 74.5621 57.1167 74.6787C57.3741 73.3356 57.0996 71.8909 56.2313 70.7116C55.3631 69.5317 54.082 68.8639 52.7497 68.7473C52.4916 70.0903 52.7661 71.5351 53.6344 72.7143Z" fill="#630B0C"/>
<path d="M60.0167 66.0781C58.8832 66.9919 58.2571 68.3167 58.1709 69.6833C59.4888 69.9185 60.8942 69.6071 62.0278 68.694C63.1614 67.7803 63.7874 66.4555 63.873 65.0895C62.5557 64.8537 61.1503 65.165 60.0167 66.0781Z" fill="#630B0C"/>
<path d="M54.5516 67.6846C55.4119 68.8706 56.6877 69.5485 58.0194 69.6752C58.2867 68.3335 58.0227 66.8867 57.1623 65.7007C56.3026 64.5154 55.0262 63.8375 53.6945 63.7108C53.4272 65.0525 53.6918 66.4993 54.5516 67.6846Z" fill="#630B0C"/>
<path d="M60.9506 60.3947C59.8171 61.3078 59.191 62.6333 59.1055 63.9992C60.4227 64.2344 61.8281 63.9238 62.9617 63.01C64.0953 62.0969 64.7213 60.7714 64.8069 59.4055C63.4897 59.1696 62.0842 59.4809 60.9506 60.3947Z" fill="#630B0C"/>
<path d="M55.4856 62.0012C56.346 63.1865 57.6218 63.8644 58.9535 63.9911C59.2208 62.6495 58.9568 61.2027 58.0964 60.0173C57.2367 58.8313 55.9603 58.1534 54.6285 58.0267C54.3613 59.3684 54.6259 60.8152 55.4856 62.0012Z" fill="#630B0C"/>
<path d="M61.7604 54.4027C60.6262 55.3158 60.0008 56.6413 59.9146 58.0072C61.2324 58.243 62.6372 57.9317 63.7708 57.018C64.905 56.1049 65.5304 54.78 65.6166 53.4134C64.2994 53.1783 62.894 53.4896 61.7604 54.4027Z" fill="#630B0C"/>
<path d="M56.415 55.805C57.2056 57.0402 58.4406 57.7929 59.7631 57.9991C60.1067 56.6763 59.925 55.216 59.1344 53.9808C58.3438 52.7456 57.1089 51.9922 55.7864 51.786C55.4427 53.1095 55.6244 54.5691 56.415 55.805Z" fill="#630B0C"/>
<path d="M82.2706 104.85C82.1811 104.85 82.0909 104.819 82.0159 104.758C79.9495 103.057 78.7639 102.54 68.5328 99.8651C63.2508 98.4837 59.5189 94.2687 57.7429 87.6769C56.2077 81.9827 56.4625 75.8296 57.2129 71.9697C58.6796 64.4204 60.1825 52.4842 60.1976 52.3649C60.2259 52.1365 60.4287 51.9747 60.6532 52.0044C60.8757 52.034 61.0336 52.2429 61.0053 52.4707C60.9895 52.5906 59.484 64.5552 58.0114 72.1321C57.2794 75.8984 57.0313 81.9019 58.5275 87.4552C59.7092 91.8394 62.4391 97.4102 68.7349 99.0572C79.1234 101.774 80.3432 102.311 82.526 104.108C82.7012 104.252 82.7288 104.515 82.5879 104.694C82.5076 104.797 82.3898 104.85 82.2706 104.85Z" fill="#630B0C"/>
<path d="M58.8134 49.1243C58.6567 50.9579 59.2992 52.6702 60.438 53.9155C61.7711 52.8912 62.6933 51.3184 62.85 49.4848C63.0067 47.6512 62.3642 45.9389 61.2247 44.6936C59.8916 45.7179 58.9694 47.2907 58.8134 49.1243Z" fill="#630B0C"/>
<path d="M97.4556 90.7073C97.4089 90.7073 97.3621 90.6985 97.318 90.6823L93.6494 89.3279C91.2374 88.4377 88.9677 88.251 87.4878 88.251C86.7018 88.251 86.1943 88.3063 86.1278 88.3137L84.8883 88.4869L84.7783 87.6607L86.0225 87.4869C86.0264 87.4862 86.0297 87.4862 86.0337 87.4855C86.1344 87.4741 86.6643 87.4175 87.4878 87.4175C89.0328 87.4175 91.4033 87.6129 93.9259 88.5442L97.2041 89.7544L103.584 70.5721C103.145 70.3201 102.567 70.0168 102.298 69.9508C102.079 69.8969 101.945 69.6718 101.997 69.4481C102.05 69.2244 102.27 69.0856 102.488 69.1401C103.05 69.2783 104.161 69.9481 104.286 70.0243C104.451 70.1247 104.525 70.3302 104.463 70.5169L97.8414 90.4249C97.8058 90.5307 97.7308 90.617 97.632 90.6655C97.5767 90.6931 97.5162 90.7073 97.4556 90.7073Z" fill="#630B0C"/>
<path d="M96.2712 88.1857C96.2244 88.1857 96.1777 88.1776 96.1329 88.1607L94.299 87.4835C89.8911 85.8561 85.6925 86.3824 85.651 86.3885C85.4279 86.4181 85.2245 86.2577 85.1955 86.0293C85.1659 85.8022 85.3219 85.5926 85.5444 85.5623C85.5872 85.5562 89.9339 84.9861 94.5754 86.6998L96.0191 87.2328L102.474 67.8268C102.192 67.6509 101.714 67.3739 101.207 67.1718C100.998 67.0876 100.894 66.8463 100.976 66.6313C101.058 66.4171 101.294 66.3113 101.503 66.3948C102.387 66.7479 103.159 67.283 103.192 67.3059C103.344 67.4117 103.408 67.6071 103.348 67.785L96.6563 87.9033C96.6214 88.0091 96.5463 88.096 96.4476 88.1446C96.3916 88.1715 96.3317 88.1857 96.2712 88.1857Z" fill="#630B0C"/>
<path d="M95.0867 85.6641C95.04 85.6641 94.9932 85.656 94.9485 85.6398C90.035 83.8257 85.6594 84.4214 85.6153 84.4282C85.3934 84.4592 85.1867 84.3008 85.1558 84.073C85.1248 83.8446 85.2802 83.6344 85.5027 83.6027C85.6844 83.5764 89.8994 83.0029 94.8333 84.7152L101.186 65.6192C100.408 64.7344 96.4671 60.8691 88.9014 63.3759C88.6881 63.4466 88.4584 63.3274 88.3893 63.1084C88.3202 62.8894 88.4367 62.6542 88.6513 62.5834C93.279 61.049 96.6429 61.8502 98.65 62.7916C100.842 63.8213 101.922 65.2142 101.966 65.2728C102.051 65.384 102.075 65.5309 102.031 65.6637L95.4718 85.3817C95.4369 85.4882 95.3612 85.5744 95.2631 85.6229C95.2072 85.6506 95.1466 85.6641 95.0867 85.6641Z" fill="#630B0C"/>
<path d="M70.2832 90.7073C70.2226 90.7073 70.1621 90.6931 70.1068 90.6655C70.008 90.617 69.933 90.5307 69.8974 90.4249L63.2751 70.5169C63.2132 70.3302 63.2876 70.1247 63.4528 70.0243C63.5772 69.9481 64.6877 69.2783 65.2506 69.1401C65.4685 69.0862 65.689 69.2244 65.7417 69.4481C65.7937 69.6718 65.6594 69.8969 65.4402 69.9508C65.1709 70.0168 64.5936 70.3201 64.1539 70.5721L70.5346 89.7544L73.8129 88.5442C76.3355 87.6129 78.706 87.4174 80.2503 87.4174C81.0738 87.4174 81.6064 87.4741 81.7045 87.4855C81.7084 87.4862 81.7124 87.4862 81.7156 87.4869L82.9605 87.6607C83.1836 87.6917 83.3396 87.902 83.3094 88.1297C83.2784 88.3582 83.0717 88.5185 82.8505 88.4869L81.6103 88.3137C81.5438 88.3056 81.0383 88.251 80.2503 88.251C78.7711 88.251 76.5007 88.4377 74.0894 89.3279L70.4208 90.6823C70.376 90.6985 70.3299 90.7073 70.2832 90.7073Z" fill="#630B0C"/>
<path d="M71.4676 88.1857C71.407 88.1857 71.3465 88.1715 71.2912 88.1445C71.1924 88.096 71.1174 88.0091 71.0818 87.9033L64.3897 67.785C64.3311 67.6071 64.395 67.4117 64.5464 67.3059C64.5793 67.283 65.3515 66.7479 66.2355 66.3948C66.4449 66.3119 66.6812 66.417 66.7628 66.6313C66.8444 66.8463 66.7411 67.0875 66.5318 67.1718C66.0242 67.3739 65.5456 67.6509 65.2639 67.8268L71.7191 87.2328L73.1633 86.6998C77.8049 84.9861 82.1509 85.5562 82.1944 85.5623C82.4175 85.5926 82.5735 85.8029 82.5439 86.0306C82.5143 86.2584 82.3109 86.4174 82.0877 86.3884C82.0456 86.3824 77.8477 85.8561 73.4398 87.4835L71.6058 88.1607C71.5611 88.1776 71.5143 88.1857 71.4676 88.1857Z" fill="#630B0C"/>
<path d="M72.6521 85.6641C72.5915 85.6641 72.5316 85.6506 72.4756 85.6229C72.3775 85.5744 72.3018 85.4882 72.267 85.3817L65.7078 65.6637C65.6637 65.5309 65.6874 65.384 65.7723 65.2728C65.8171 65.2142 66.8967 63.8213 69.0887 62.7916C71.0959 61.8502 74.4597 61.049 79.0875 62.5834C79.3014 62.6542 79.4186 62.8894 79.3495 63.1084C79.2803 63.3274 79.0506 63.4473 78.8367 63.3759C71.348 60.894 67.3318 64.7607 66.5537 65.6219L72.9055 84.7152C77.84 83.0029 82.0544 83.5771 82.236 83.6027C82.4585 83.6344 82.6132 83.8446 82.5823 84.0724C82.5514 84.3008 82.346 84.4599 82.1235 84.4282C82.0794 84.4214 77.6932 83.8291 72.7903 85.6398C72.7455 85.656 72.6988 85.6641 72.6521 85.6641Z" fill="#630B0C"/>
<path d="M78.3968 56.086L83.7296 90.896C83.7421 90.9768 83.7888 91.0186 83.8691 91.0186C83.9501 91.0186 83.9968 90.9768 84.0093 90.896L89.3421 56.086H78.3968ZM83.8691 91.8522C83.3879 91.8522 82.9995 91.5119 82.9245 91.0247L77.5186 55.7336C77.5002 55.6136 77.5338 55.4903 77.6108 55.398C77.6891 55.3056 77.8017 55.2524 77.9208 55.2524H89.8181C89.9372 55.2524 90.0504 55.3056 90.1274 55.398C90.2045 55.4903 90.2387 55.6136 90.2203 55.7336L84.8138 91.0247C84.7394 91.5119 84.351 91.8522 83.8691 91.8522Z" fill="#630B0C"/>
<path d="M83.8638 86.1465L82.8389 58.0941C82.8138 57.5604 83.2799 57.115 83.8638 57.115C84.4477 57.115 84.9138 57.5604 84.8888 58.0941" fill="#630B0C"/>
<path d="M82.5808 78.8048L81.6599 58.5362C81.627 57.8414 81.0036 57.3347 80.3347 57.4587C80.1399 57.4944 80.0109 57.6851 80.0464 57.8846" fill="#630B0C"/>
<path d="M87.6814 57.8846C87.7169 57.6851 87.5872 57.4944 87.393 57.4587C86.7236 57.3347 86.1008 57.8414 86.0673 58.5362L85.147 78.8048" fill="#630B0C"/>
<path d="M77.0223 55.2538H90.7166V53.2827H77.0223V55.2538ZM91.1241 56.0873H76.6148C76.3904 56.0873 76.208 55.9007 76.208 55.6702V52.8656C76.208 52.6358 76.3904 52.4491 76.6148 52.4491H91.1241C91.3486 52.4491 91.5309 52.6358 91.5309 52.8656V55.6702C91.5309 55.9007 91.3486 56.0873 91.1241 56.0873Z" fill="#630B0C"/>
<path d="M77.0223 49.4491H90.7166V47.478H77.0223V49.4491ZM91.1241 50.2826H76.6148C76.3904 50.2826 76.208 50.096 76.208 49.8655V47.0609C76.208 46.8311 76.3904 46.6444 76.6148 46.6444H91.1241C91.3486 46.6444 91.5309 46.8311 91.5309 47.0609V49.8655C91.5309 50.096 91.3486 50.2826 91.1241 50.2826Z" fill="#630B0C"/>
<path d="M78.1493 52.4485H89.5896V50.2826H78.1493V52.4485ZM89.9964 53.282H77.7424C77.5173 53.282 77.335 53.0954 77.335 52.8649V49.8662C77.335 49.6357 77.5173 49.4491 77.7424 49.4491H89.9964C90.2216 49.4491 90.4033 49.6357 90.4033 49.8662V52.8649C90.4033 53.0954 90.2216 53.282 89.9964 53.282Z" fill="#630B0C"/>
<path d="M77.826 46.6431H89.9129L90.4112 43.3115H77.3277L77.826 46.6431ZM90.2624 47.4767H77.4765C77.2751 47.4767 77.1039 47.3264 77.0736 47.1222L76.4509 42.9577C76.4331 42.8378 76.4673 42.7158 76.545 42.6235C76.622 42.5311 76.7346 42.4779 76.8538 42.4779H90.8851C91.0036 42.4779 91.1169 42.5311 91.1939 42.6235C91.2716 42.7158 91.3058 42.8378 91.2874 42.9577L90.6653 47.1222C90.6343 47.3264 90.4632 47.4767 90.2624 47.4767Z" fill="#630B0C"/>
<path d="M90.2787 43.2535C90.1872 43.2535 90.0943 43.2218 90.0186 43.1572C89.8462 43.0103 89.8225 42.7481 89.9647 42.5709C90.0634 42.4482 92.1587 39.742 89.4617 36.029C89.4387 36.5566 89.3149 37.1072 88.9588 37.4353C88.7337 37.6422 88.3262 37.843 87.6633 37.624C87.0392 37.4178 86.5238 36.8754 86.1723 36.0546C85.5304 34.5559 85.4725 32.1563 85.9794 30.4137C84.7458 30.7775 82.2917 31.8908 82.0033 35.0209C81.9856 35.2129 81.8414 35.3672 81.6545 35.3942C81.4668 35.4205 81.2871 35.3127 81.2187 35.1327C81.1937 35.0681 80.6993 33.7392 80.877 31.8908C80.2885 32.4184 79.4979 33.3807 79.1075 34.9562C79.0068 35.3612 78.9858 35.8167 78.9654 36.2574C78.9338 36.9569 78.9028 37.6173 78.5598 38.0802C78.4282 38.2581 78.1833 38.2986 78.0043 38.1719C77.972 38.149 77.4842 37.7938 77.2025 36.9583C76.7989 38.5189 76.6014 40.8391 78.2017 42.548C78.3578 42.7144 78.3518 42.9779 78.1899 43.1376C78.0273 43.2966 77.7692 43.2906 77.6139 43.1248C76.3513 41.7757 75.8635 39.9118 76.2032 37.7352C76.4546 36.1247 77.0649 34.9178 77.0906 34.8672C77.1814 34.688 77.3855 34.6024 77.5724 34.6624C77.7607 34.7224 77.8798 34.9117 77.8548 35.1119C77.7449 36.0189 77.9095 36.6206 78.0964 36.9919C78.1274 36.7601 78.1399 36.4926 78.1524 36.2183C78.1734 35.7588 78.1978 35.2379 78.3183 34.7513C79.0694 31.7216 81.166 30.6556 81.2549 30.6118C81.3964 30.5424 81.563 30.5612 81.6854 30.661C81.8078 30.7607 81.8638 30.9231 81.8289 31.0788C81.6683 31.8038 81.6367 32.4757 81.6637 33.0444C82.9967 29.9595 86.5245 29.4318 86.5666 29.4264C86.714 29.4049 86.8602 29.4696 86.9484 29.5915C87.0366 29.7142 87.0531 29.8759 86.9905 30.014C86.3033 31.5383 86.2697 34.2048 86.9181 35.7197C87.0959 36.1355 87.4131 36.6651 87.9128 36.8302C88.1498 36.9091 88.3183 36.9037 88.4144 36.8154C88.7231 36.531 88.679 35.473 88.552 34.847C88.5145 34.6651 88.6007 34.4791 88.762 34.3928C88.9239 34.3066 89.1214 34.341 89.2465 34.4764C93.6359 39.2366 90.623 43.0648 90.592 43.1032C90.5117 43.2023 90.3952 43.2535 90.2787 43.2535Z" fill="#630B0C"/>
<path d="M79.5105 53.2402C79.2854 53.2402 79.103 53.0536 79.103 52.8231V49.9336C79.103 49.7031 79.2854 49.5164 79.5105 49.5164C79.735 49.5164 79.9173 49.7031 79.9173 49.9336V52.8231C79.9173 53.0536 79.735 53.2402 79.5105 53.2402Z" fill="#630B0C"/>
<path d="M88.2281 53.2402C88.003 53.2402 87.8213 53.0536 87.8213 52.8231V49.9336C87.8213 49.7031 88.003 49.5164 88.2281 49.5164C88.4532 49.5164 88.6356 49.7031 88.6356 49.9336V52.8231C88.6356 53.0536 88.4532 53.2402 88.2281 53.2402Z" fill="#630B0C"/>
<path d="M86.4845 53.2402C86.26 53.2402 86.0776 53.0536 86.0776 52.8231V49.9336C86.0776 49.7031 86.26 49.5164 86.4845 49.5164C86.7096 49.5164 86.8919 49.7031 86.8919 49.9336V52.8231C86.8919 53.0536 86.7096 53.2402 86.4845 53.2402Z" fill="#630B0C"/>
<path d="M84.7415 53.2402C84.5163 53.2402 84.334 53.0536 84.334 52.8231V49.9336C84.334 49.7031 84.5163 49.5164 84.7415 49.5164C84.9659 49.5164 85.1483 49.7031 85.1483 49.9336V52.8231C85.1483 53.0536 84.9659 53.2402 84.7415 53.2402Z" fill="#630B0C"/>
<path d="M82.9976 53.2402C82.7732 53.2402 82.5908 53.0536 82.5908 52.8231V49.9336C82.5908 49.7031 82.7732 49.5164 82.9976 49.5164C83.2228 49.5164 83.4051 49.7031 83.4051 49.9336V52.8231C83.4051 53.0536 83.2228 53.2402 82.9976 53.2402Z" fill="#630B0C"/>
<path d="M81.2535 53.2402C81.029 53.2402 80.8467 53.0536 80.8467 52.8231V49.9336C80.8467 49.7031 81.029 49.5164 81.2535 49.5164C81.4786 49.5164 81.661 49.7031 81.661 49.9336V52.8231C81.661 53.0536 81.4786 53.2402 81.2535 53.2402Z" fill="#630B0C"/>
</g>
<defs>
<clipPath id="clip0_74_830">
<rect width="169" height="173" rx="3" fill="white"/>
</clipPath>
</defs>
</svg>
